<?xml version="1.0" encoding="utf-8"?>
<!-- Generator: Adobe Illustrator 25.0.0, SVG Export Plug-In . SVG Version: 6.00 Build 0)  -->
<svg version="1.1" id="Warstwa_1" xmlns="http://www.w3.org/2000/svg" xmlns:xlink="http://www.w3.org/1999/xlink" x="0px" y="0px"
	 viewBox="0 0 595.28 536.67" style="enable-background:new 0 0 595.28 536.67;" xml:space="preserve">
<g>
	<g>
		<path d="M58.57,496.2l-45.21-47.63l51.67-51.67c-0.32-0.32-0.64-0.64-0.96-0.96c-2.44-2.43-5.49-5.46-9.14-9.3
			c-4.52-4.74-5.15-9.4-4.89-12.47c0.63-7.41,6.66-11.91,11.06-15.19c0.61-0.46,1.36-1.01,2.06-1.56
			c-7.66-6.58-11.96-14.93-12.45-24.19c-1.05-19.76,15.16-36.92,17.01-38.81l0.07-0.07l140.17-140.17
			c14.61-14.61,29.46-21.9,44.21-21.71c13.82,0.2,23.13,6.93,27.97,11.65c1.56-1.18,3.68-3.33,4.96-4.63
			c3.96-4.01,8.06-8.16,13.87-8.16c0.01,0,0.02,0,0.03,0c3.07,0.01,5.95,1.23,8.12,3.46c5.35,5.47,12.12,12.34,19.34,19.67
			c18.36,18.63,39.16,39.74,47.94,49.35c5.38,5.89,6.7,12.97,3.74,19.94c-1.99,4.67-5.5,8.36-8.59,11.61
			c-0.72,0.75-1.62,1.7-2.39,2.57c8.96,8.77,10.86,17.88,10.81,24.19c-0.14,17.74-15.07,31.48-18.12,34.11L248.93,407.15
			c-5.62,5.62-10.61,10.97-15.44,16.15c-11.54,12.37-21.51,23.04-32.71,28.97c-13.31,7.04-26.8,6.81-42.44-0.74
			c-5.19-2.51-7.97-3.25-9.25-3.47c-0.11,0.17-0.23,0.35-0.33,0.5c-2.2,3.39-6.78,10.43-18.41,9.96
			c-6.22-0.26-11.54-4.76-16.68-9.11c-0.95-0.81-2.24-1.89-3.42-2.82c-16.41,16.2-44.49,42.79-44.79,43.08L58.57,496.2z
			 M39.89,448.92l19.39,20.43c10.42-9.91,30.14-28.75,41.1-39.72c1.62-1.62,7.62-6.49,16.87-1.24c2.98,1.69,5.89,4.15,8.7,6.53
			c1.73,1.46,4.5,3.81,5.94,4.62c0.02,0,0.04,0,0.05,0c0.25-0.33,0.61-0.88,0.89-1.32c7.16-11.01,16.62-12.07,33.77-3.79
			c20.03,9.67,29.26,1.36,53-24.08c4.71-5.05,10.05-10.77,15.9-16.62l111.49-111.49l0.33-0.28c3.21-2.71,11.6-11.63,11.64-20.02
			c0.02-4.09-2.08-7.89-6.42-11.62c-4.45-3.83-5.56-8.07-5.7-10.95c-0.37-7.3,4.58-12.5,8.94-17.08c1.5-1.57,3.88-4.08,4.69-5.53
			c-0.03-0.03-0.06-0.07-0.1-0.11c-8.53-9.34-29.2-30.32-47.44-48.83c-5.19-5.27-10.15-10.3-14.51-14.74
			c-4.56,4.62-10.75,10.77-18.88,10.77c-0.06,0-0.12,0-0.18,0c-3.1-0.03-7.67-1.01-11.89-5.48c-2.37-2.51-7.56-6.75-15.57-6.86
			c-0.11,0-0.21,0-0.32,0c-9.19,0-19.61,5.58-30.18,16.15L81.27,307.74c-3.42,3.54-12.13,14.82-11.59,24.53
			c0.24,4.24,2.22,7.76,6.25,11.08c5.32,4.39,7.95,9.27,7.82,14.52c-0.2,8.08-6.62,12.86-11.3,16.36c-0.54,0.4-1.18,0.88-1.8,1.36
			c2.63,2.72,4.92,4.99,6.82,6.89c6.64,6.61,9.67,9.62,9.68,14.86c0,2.78-1.08,5.39-3.04,7.36L39.89,448.92z M132.29,439.74
			L132.29,439.74L132.29,439.74z"/>
		<path d="M436.98,218.6c-16.01,0-30.6-5.99-42.71-18.1c-8.58-8.58-16.73-12.8-23.58-12.22c-7.45,0.63-12.19,6.82-12.61,7.39
			l-6.21,9.68l-8.22-8.18l-31.7-31.29l-0.04-3.87c0.16-2.46,2.75-24.48,43.32-38.36c12.44-4.26,49.17-5.74,63.82,10.75
			c7.65,8.61,13.81,12.53,19.96,12.71c0.16,0,0.31,0.01,0.47,0.01c10.45,0,24.94-10.01,48.23-33.31
			c14.69-14.69,22.45-21.94,34.19-32.9c2.17-2.03,4.48-4.18,6.99-6.54l6.71-6.28l47.35,47.35l-6.91,6.72
			c-0.35,0.34-35.44,34.43-70.15,64.93C482.11,207.99,458.29,218.59,436.98,218.6z M372.06,169.22c11.82,0,23.8,5.99,35.65,17.84
			c9.98,9.98,22.16,14.06,36.2,12.11c15.11-2.1,32.21-11.22,49.45-26.37c25.2-22.14,50.62-46.21,62.5-57.6l-20.69-20.69
			c-0.1,0.09-0.2,0.18-0.29,0.27c-11.6,10.84-19.26,18-33.72,32.46c-23.73,23.73-43.5,39.43-62.7,38.86
			c-15.32-0.45-26.52-11.1-33.61-19.08c-7.14-8.03-34.21-8.57-43.47-5.4c-18.78,6.43-26.1,14.09-28.89,18.49l17.57,16.87
			c4.39-3.44,10.62-6.83,18.63-7.6C369.81,169.28,370.93,169.22,372.06,169.22z"/>
		<rect x="90.65" y="388.05" transform="matrix(0.728 -0.6856 0.6856 0.728 -261.2907 183.1524)" width="19" height="65.57"/>
	</g>
	<path d="M161.03,282.89c-2.43,0-4.86-0.93-6.72-2.78c-3.71-3.71-3.71-9.73,0-13.44l77.87-77.87c3.71-3.71,9.72-3.71,13.43,0
		s3.71,9.73,0,13.44l-77.87,77.87C165.89,281.96,163.46,282.89,161.03,282.89z"/>
</g>
</svg>
