<?xml version="1.0" encoding="utf-8"?>
<!-- Generator: Adobe Illustrator 25.0.0, SVG Export Plug-In . SVG Version: 6.00 Build 0)  -->
<svg version="1.1" id="Warstwa_1" xmlns="http://www.w3.org/2000/svg" xmlns:xlink="http://www.w3.org/1999/xlink" x="0px" y="0px"
	 viewBox="0 0 595.28 536.67" style="enable-background:new 0 0 595.28 536.67;" xml:space="preserve">
<g>
	<path d="M415.58,195.16l20.42-14.46l-52.75-75.73l-20.85,15.74c0,0-61.26-3.83-111.46,37.44c-40.81,33.56-59.55,51.9-59.55,51.9
		v39.14L63.05,383.48c0,0-33.48,28.92-35.18,55.58c-1.7,26.68-2.83,49.64-2.83,49.64h52.31c0,0,0-21.7,0-34.88
		c0-13.2,33.18-43.4,33.18-43.4L177.12,477c0,0,47.86,39.77,79.34,10.41c31.48-29.35,141.87-141.87,155.07-155.05
		c13.18-13.2,23.61-28.72,15.94-66.58C419.82,227.93,415.58,195.16,415.58,195.16z M204.56,454.67l-69.75-69.77
		c0,0,90.6-91.26,102.93-104.02c12.35-12.76,36.03-11.78,43.62-5.94c11.05,8.5,51.47,45.73,51.47,45.73s-6.18-1.28-32.11-1.7
		c-25.96-0.43-49.36,27.64-57.01,42.09C236.04,375.54,204.56,454.67,204.56,454.67z M231.78,462.75c0,0,28.51-65.51,33.62-76.58
		c5.11-11.07,14.92-36.92,43.81-35.31c22.98,1.28,28.94,10.2,28.94,10.2L231.78,462.75z"/>
	<path d="M411.31,110.65l27.23,44.24c0,0,19.29-16.45,30.06-22.12c10.78-5.67,23.82-9.08,43.11-9.08s69.77,0,69.77,0V72.64
		c0,0-61.26,0-78.28,0c-17.02,0-39.71,2.84-58.99,14.75C424.93,99.3,411.31,110.65,411.31,110.65z"/>
</g>
</svg>
