<?xml version="1.0" encoding="utf-8"?>
<!-- Generator: Adobe Illustrator 25.0.0, SVG Export Plug-In . SVG Version: 6.00 Build 0)  -->
<svg version="1.1" id="svg2" xmlns:svg="http://www.w3.org/2000/svg"
	 xmlns="http://www.w3.org/2000/svg" xmlns:xlink="http://www.w3.org/1999/xlink" x="0px" y="0px" viewBox="0 0 397 411"
	 style="enable-background:new 0 0 397 411;" xml:space="preserve">
<path id="rect2991" d="M183.31,43.09v40.72l-30.59-17.69l-15.53,26.81l46.13,26.72v60.09l-51.81-29.94l-0.09-53.53l-31,0.06
	l0.06,35.56l-35.38-20.44l-15.5,26.84l35.28,20.38l-30.63,17.63l15.44,26.88l46.22-26.59l52,30.03l-51.81,29.91l-46.41-26.69
	l-15.44,26.88l30.81,17.75l-35.38,20.41l15.5,26.84l35.28-20.38l-0.06,35.34l31,0.06l0.09-53.31l52-30v59.81l-46.31,26.84
	l15.53,26.81l30.78-17.81v40.84h31v-40.72l30.59,17.69l15.53-26.81l-46.13-26.72v-60.09l51.81,29.94l0.09,53.53l31-0.06l-0.06-35.56
	l35.38,20.44l15.5-26.84l-35.28-20.38l30.63-17.63l-15.44-26.88l-46.19,26.59l-52.03-30.03l51.84-29.94l46.38,26.72l15.44-26.88
	l-30.81-17.75l35.38-20.41l-15.5-26.84l-35.28,20.38l0.06-35.34l-31-0.06l-0.09,53.31l-52,30v-59.81l46.31-26.84l-15.53-26.81
	l-30.78,17.81V43.09H183.31z"/>
</svg>
