<?xml version="1.0" encoding="utf-8"?>
<!-- Generator: Adobe Illustrator 25.0.0, SVG Export Plug-In . SVG Version: 6.00 Build 0)  -->
<svg version="1.1" id="Warstwa_1" xmlns="http://www.w3.org/2000/svg" xmlns:xlink="http://www.w3.org/1999/xlink" x="0px" y="0px"
	 viewBox="0 0 595.28 536.67" style="enable-background:new 0 0 595.28 536.67;" xml:space="preserve">
<g>
	<g>
		<path d="M58.42,501.85L7.78,448.5l51.59-51.59c-2.09-2.09-4.53-4.56-7.33-7.5c-5.54-5.82-6.31-11.68-5.98-15.56
			c0.69-8.15,6.37-13.26,10.95-16.77c-6.29-6.71-9.82-14.78-10.29-23.62c-1.14-21.47,16.17-39.8,18.14-41.82l0.1-0.1l140.17-140.17
			c15.41-15.41,31.22-23.07,47.1-22.88c10.19,0.15,20.11,3.85,27.94,10.3c0.76-0.73,1.51-1.49,2.1-2.09
			c4.33-4.38,9.23-9.35,16.71-9.35c0.01,0,0.03,0,0.04,0c4.15,0.01,8.05,1.67,10.97,4.66c5.34,5.47,12.11,12.33,19.33,19.66
			c18.38,18.65,39.22,39.8,48.04,49.46c6.4,7.01,8.03,15.83,4.46,24.21c-2.22,5.22-6.05,9.31-9.18,12.6
			c7.66,8.84,9.38,17.82,9.33,24.24c-0.16,19.19-15.8,33.88-19.39,37.01L251.76,409.98c-5.57,5.57-10.54,10.9-15.35,16.05
			c-11.79,12.63-21.97,23.54-33.77,29.78c-14.33,7.58-29.4,7.36-46.05-0.67c-2.59-1.25-4.47-2-5.8-2.46
			c-2.9,4.01-8.89,10.33-20.62,9.85c-7.59-0.31-13.44-5.26-19.1-10.05c-0.19-0.16-0.39-0.33-0.59-0.5
			c-16.46,16.16-41.11,39.5-42.28,40.61L58.42,501.85z M45.47,448.99l13.95,14.7c10.85-10.34,28.14-26.9,38.13-36.89
			c4.37-4.37,12.37-7.17,21.67-1.89c3.31,1.88,6.36,4.46,9.31,6.95c0.68,0.58,1.55,1.31,2.42,2.02c2.3-3.13,6.25-7.28,13.23-8.54
			c6.53-1.18,13.76,0.46,24.17,5.48c16.81,8.11,23.68,3.21,48.34-23.21c4.73-5.07,10.1-10.82,16-16.72l111.62-111.62l0.48-0.4
			c3.28-2.79,10.18-10.69,10.2-16.97c0-1.81-0.51-4.67-5.03-8.56c-5.53-4.75-6.91-10.12-7.09-13.78
			c-0.45-9.02,5.61-15.39,10.04-20.04c0.67-0.71,1.57-1.65,2.36-2.54c-9.53-10.21-28.38-29.34-45.16-46.37
			c-4.11-4.17-8.07-8.19-11.7-11.88c-4.76,4.53-10.95,9.2-19.06,9.1c-3.87-0.04-9.57-1.25-14.76-6.74
			c-1.94-2.05-6.17-5.52-12.72-5.61c-8.17-0.13-17.71,5.06-27.62,14.97l-140.1,140.1c-2.86,2.99-10.92,13.33-10.45,21.52
			c0.12,2.08,0.77,4.88,4.8,8.2c6.32,5.21,9.44,11.17,9.28,17.71c-0.22,8.86-6.19,14.32-11.06,18.07c1.32,1.33,2.52,2.53,3.6,3.6
			c6.76,6.73,10.85,10.79,10.85,17.69c0,3.85-1.49,7.47-4.22,10.2L45.47,448.99z M133.97,436.11
			C133.97,436.11,133.97,436.11,133.97,436.11S133.97,436.11,133.97,436.11z M61.98,361.73L61.98,361.73L61.98,361.73z"/>
		<path d="M436.95,222.68c-17.01,0-32.56-6.41-45.5-19.35c-7.68-7.68-14.71-11.52-20.35-11.07c-5.46,0.43-9.19,5.01-9.73,5.69
			l-8.75,13.99l-11.74-11.88l-33.37-32.04l0.41-6.27c0.29-4.46,3.88-27.47,46.02-41.89c12.15-4.16,51.5-6.81,68.11,11.88
			c8.89,10,14.01,11.28,17.09,11.37c0.11,0,0.22,0,0.33,0c11.9,0,31.6-18.31,45.43-32.14c14.74-14.74,22.51-22,34.29-33
			c2.17-2.03,4.48-4.18,6.99-6.53l9.53-8.93l52.95,52.95l-9.81,9.54c-0.35,0.34-35.51,34.5-70.3,65.07
			C483.92,211.71,459.19,222.68,436.95,222.68z M372.08,165.22c12.9,0,25.82,6.38,38.46,19.02c25.95,25.95,61.37,2.09,80.18-14.44
			c23.22-20.4,46.63-42.46,59.42-54.66l-15.06-15.06c-10.22,9.55-17.76,16.66-31.09,29.99c-24.47,24.47-45.01,40.65-65.65,40.03
			c-16.87-0.5-28.9-11.89-36.48-20.42c-5.42-6.1-30.22-7.34-39.18-4.27c-14.39,4.92-21.45,10.44-24.86,14.28l12.63,12.12
			c4.6-3.04,10.57-5.7,17.86-6.41C369.56,165.28,370.82,165.22,372.08,165.22z"/>
		<rect x="86.65" y="388.05" transform="matrix(0.728 -0.6856 0.6856 0.728 -261.2907 183.1524)" width="27" height="65.57"/>
	</g>
	<path d="M161.03,286.89c-3.46,0-6.91-1.32-9.55-3.95c-5.27-5.27-5.27-13.82,0-19.09l77.87-77.87c5.27-5.27,13.82-5.27,19.09,0
		c5.27,5.27,5.27,13.82,0,19.09l-77.87,77.87C167.94,285.57,164.48,286.89,161.03,286.89z"/>
</g>
</svg>
