<svg xmlns="http://www.w3.org/2000/svg" xmlns:xlink="http://www.w3.org/1999/xlink" width="500" zoomAndPan="magnify" viewBox="0 0 375 374.999991" height="500" preserveAspectRatio="xMidYMid meet" version="1.0"><defs><g/><clipPath id="2cf4c7a21c"><path d="M 16 22.363281 L 349 22.363281 L 349 361.210938 L 16 361.210938 Z M 16 22.363281 " clip-rule="nonzero"/></clipPath><clipPath id="99f52d3b65"><path d="M 11.757812 277.445312 L 371 277.445312 L 371 285.972656 L 11.757812 285.972656 Z M 11.757812 277.445312 " clip-rule="nonzero"/></clipPath><clipPath id="4ddf7fd2d7"><path d="M 11.757812 203.015625 L 371 203.015625 L 371 211.542969 L 11.757812 211.542969 Z M 11.757812 203.015625 " clip-rule="nonzero"/></clipPath><clipPath id="630e37505a"><path d="M 22 160 L 210 160 L 210 220 L 22 220 Z M 22 160 " clip-rule="nonzero"/></clipPath><clipPath id="e96745eb6b"><path d="M 3.886719 195.699219 L 117.910156 81.675781 L 223.445312 187.210938 L 109.425781 301.234375 Z M 3.886719 195.699219 " clip-rule="nonzero"/></clipPath><clipPath id="fd10839b6f"><path d="M 3.886719 195.699219 L 117.910156 81.675781 L 223.445312 187.210938 L 109.425781 301.234375 Z M 3.886719 195.699219 " clip-rule="nonzero"/></clipPath><clipPath id="292054022e"><path d="M 21 159 L 211 159 L 211 221 L 21 221 Z M 21 159 " clip-rule="nonzero"/></clipPath><clipPath id="2c9b5c1e43"><path d="M 3.886719 195.699219 L 117.910156 81.675781 L 223.445312 187.210938 L 109.425781 301.234375 Z M 3.886719 195.699219 " clip-rule="nonzero"/></clipPath><clipPath id="f9ac416d59"><path d="M 3.886719 195.699219 L 117.910156 81.675781 L 223.445312 187.210938 L 109.425781 301.234375 Z M 3.886719 195.699219 " clip-rule="nonzero"/></clipPath><clipPath id="2d9ca6b877"><path d="M 22 164 L 208 164 L 208 225 L 22 225 Z M 22 164 " clip-rule="nonzero"/></clipPath><clipPath id="90416b3bed"><path d="M 3.886719 195.699219 L 117.910156 81.675781 L 223.445312 187.210938 L 109.425781 301.234375 Z M 3.886719 195.699219 " clip-rule="nonzero"/></clipPath><clipPath id="848253b16a"><path d="M 3.886719 195.699219 L 117.910156 81.675781 L 223.445312 187.210938 L 109.425781 301.234375 Z M 3.886719 195.699219 " clip-rule="nonzero"/></clipPath><clipPath id="99111bbc6a"><path d="M 21 163 L 209 163 L 209 226 L 21 226 Z M 21 163 " clip-rule="nonzero"/></clipPath><clipPath id="409d51773f"><path d="M 3.886719 195.699219 L 117.910156 81.675781 L 223.445312 187.210938 L 109.425781 301.234375 Z M 3.886719 195.699219 " clip-rule="nonzero"/></clipPath><clipPath id="501e26c919"><path d="M 3.886719 195.699219 L 117.910156 81.675781 L 223.445312 187.210938 L 109.425781 301.234375 Z M 3.886719 195.699219 " clip-rule="nonzero"/></clipPath><clipPath id="246a742c10"><path d="M 77 192 L 157 192 L 157 196 L 77 196 Z M 77 192 " clip-rule="nonzero"/></clipPath><clipPath id="1bfe002355"><path d="M 3.886719 195.699219 L 117.910156 81.675781 L 223.445312 187.210938 L 109.425781 301.234375 Z M 3.886719 195.699219 " clip-rule="nonzero"/></clipPath><clipPath id="dc2ae66a36"><path d="M 3.886719 195.699219 L 117.910156 81.675781 L 223.445312 187.210938 L 109.425781 301.234375 Z M 3.886719 195.699219 " clip-rule="nonzero"/></clipPath><clipPath id="2265997ff3"><path d="M 76 191 L 158 191 L 158 197 L 76 197 Z M 76 191 " clip-rule="nonzero"/></clipPath><clipPath id="f5c7d72839"><path d="M 3.886719 195.699219 L 117.910156 81.675781 L 223.445312 187.210938 L 109.425781 301.234375 Z M 3.886719 195.699219 " clip-rule="nonzero"/></clipPath><clipPath id="e49c13163d"><path d="M 3.886719 195.699219 L 117.910156 81.675781 L 223.445312 187.210938 L 109.425781 301.234375 Z M 3.886719 195.699219 " clip-rule="nonzero"/></clipPath></defs><path fill="#1c2f51" d="M 112.949219 152.953125 C 112.949219 152.953125 102.753906 153.089844 102.339844 154.667969 C 101.9375 156.234375 101.421875 157.5625 106.742188 156.84375 C 112.0625 156.132812 114.992188 153.839844 114.621094 153.472656 C 114.25 153.089844 112.949219 152.953125 112.949219 152.953125 Z M 73.148438 158.449219 C 73.148438 158.449219 69.539062 158.511719 69.46875 159.265625 C 69.394531 160.015625 69.675781 160.863281 71.003906 160.699219 C 72.332031 160.523438 74.3125 159.441406 74.078125 159.03125 C 73.828125 158.613281 73.148438 158.449219 73.148438 158.449219 Z M 38.265625 174.789062 C 59.898438 167.738281 68.351562 198.359375 53.125 208.878906 C 57.671875 209.101562 61.03125 209.730469 63.394531 208 C 68.695312 204.121094 71.796875 189.574219 65.136719 179.855469 C 63.003906 174.289062 55 167.460938 46.175781 168.914062 C 37.039062 170.421875 32.53125 178.460938 32.53125 178.460938 C 32.53125 178.460938 32.53125 178.460938 33.359375 178.597656 C 33.90625 178.6875 34.609375 176.625 38.265625 174.789062 Z M 182.035156 171.484375 C 201.925781 170.574219 206.769531 192.234375 201.800781 208.195312 L 217.90625 208 C 225.691406 179.628906 210.863281 149.132812 178.394531 153.707031 C 164.21875 155.707031 155.976562 166.625 153.234375 170.347656 C 151.59375 172.574219 152.699219 172.761719 154.515625 171.007812 C 157.246094 168.359375 163.503906 162.398438 173.765625 159.378906 C 187.25 155.398438 197.121094 159.574219 203.800781 168.089844 C 197.921875 164.171875 188.671875 162.191406 180.269531 164.121094 C 163.761719 167.894531 152.554688 183.308594 154.03125 207.476562 C 154.15625 209.445312 163.445312 207.917969 163.445312 207.917969 C 163.445312 207.917969 161.882812 204.289062 161.835938 198.144531 C 161.691406 183.082031 169.195312 172.523438 182.035156 171.484375 Z M 291.886719 204.734375 C 291.886719 204.734375 317.675781 203.351562 325.183594 200.617188 C 327.515625 199.773438 329.433594 198.402344 330.957031 196.925781 C 314.394531 201.761719 250.601562 199.410156 250.601562 199.410156 C 250.601562 199.410156 245.960938 200.277344 245.757812 197.84375 C 245.558594 195.414062 251.652344 177.421875 256.625 171.660156 C 260.058594 167.65625 276.246094 167.378906 280.929688 169.511719 C 283.660156 170.757812 286.660156 175.367188 290.339844 175.78125 C 294.023438 176.183594 320.90625 176.851562 324.792969 175.191406 C 328.679688 173.535156 329.222656 171.402344 331.472656 170.964844 C 333.722656 170.53125 341.433594 169.78125 342.039062 170.328125 C 342.433594 170.675781 342.855469 178.359375 340.617188 185.523438 C 340.082031 187.453125 336.703125 198.484375 327.503906 203.203125 C 317.410156 208.394531 305.539062 208.804688 305.539062 208.804688 Z M 25.882812 180.03125 C 25.882812 180.03125 31.511719 163.5625 35.269531 160.699219 C 39.019531 157.832031 42.523438 158.277344 46.21875 154.523438 C 49.898438 150.78125 63.601562 131.410156 66.261719 130.179688 C 66.746094 129.964844 68.972656 129.097656 72.34375 127.851562 C 70.921875 132.171875 66.425781 145.933594 67.117188 146.273438 C 67.816406 146.625 73.394531 131.5625 75.4375 126.71875 C 83.027344 123.941406 94.207031 119.984375 104.722656 116.5625 C 102.246094 122.054688 97.566406 141.46875 97.566406 141.46875 C 97.566406 141.46875 97.566406 141.46875 97.742188 141.769531 C 97.84375 141.964844 104.039062 123.191406 108.804688 115.253906 C 120.128906 111.664062 129.972656 109.003906 132.621094 109.582031 C 137.574219 110.664062 145.429688 119.507812 151.523438 126.488281 C 150.316406 125.4375 149.234375 124.613281 148.480469 124.28125 C 145.542969 122.984375 134.5 124.007812 132.046875 125.574219 C 129.59375 127.152344 131.292969 132.460938 131.292969 132.460938 C 131.292969 132.460938 132.046875 133.695312 133.925781 134.097656 C 135.789062 134.511719 143.027344 133.417969 146.027344 133.003906 C 147.84375 132.757812 150.449219 133.695312 152.214844 134.46875 C 127.074219 138.914062 59.03125 152.996094 59.03125 152.996094 C 59.03125 152.996094 54.257812 154.285156 54.90625 154.699219 C 55.269531 154.925781 115.765625 145.292969 170.105469 140.707031 C 186.160156 139.347656 201.925781 138.871094 215.195312 138.78125 C 215.265625 139.066406 215.347656 139.375 215.453125 139.699219 C 216.339844 142.285156 228.957031 155.449219 236.1875 157.492188 C 243.417969 159.53125 256.71875 157.769531 256.449219 157.152344 C 256.171875 156.535156 246.960938 156.886719 241.035156 154.757812 C 235.09375 152.644531 224.867188 142.625 224.320312 140.777344 C 224.09375 140.015625 224.339844 139.324219 224.703125 138.78125 C 230.011719 138.800781 234.714844 138.882812 238.601562 138.972656 C 241.601562 139.550781 244.75 140.375 247.714844 141.535156 C 258.355469 145.699219 267.769531 154.699219 267.492188 155.71875 C 267.222656 156.738281 265.449219 156.886719 265.449219 156.886719 C 265.449219 156.886719 269.605469 157.832031 269.957031 154.625 C 270.234375 151.976562 265.222656 143.75 263.234375 140.894531 C 265.210938 141.367188 268.742188 142.355469 270.089844 143.644531 C 271.996094 145.492188 280.113281 161.246094 284.339844 163.355469 C 288.566406 165.472656 332.832031 166.226562 334.339844 163.832031 C 335.835938 161.449219 326.832031 141.8125 326.832031 141.8125 C 326.832031 141.8125 306.582031 136.894531 280.660156 135.265625 C 279.0625 135.160156 277.421875 135.058594 275.730469 134.964844 C 275.554688 134.957031 275.390625 134.933594 275.203125 134.925781 C 266.398438 134.335938 228.082031 132.769531 205.304688 133.398438 C 194.707031 133.695312 173.601562 135.765625 166.507812 128.027344 C 164.527344 125.859375 152.894531 115.410156 144.53125 108.613281 L 179.917969 127.832031 L 245.394531 129.054688 C 245.394531 129.054688 234.890625 119.910156 223.433594 115.140625 C 208.367188 108.859375 153.75 102.34375 135.285156 102.5625 C 134.417969 102.488281 133.40625 102.539062 132.363281 102.675781 L 132.355469 102.675781 C 129.015625 103.097656 125.394531 104.261719 125.394531 104.261719 C 125.394531 104.261719 65.714844 125.953125 62.519531 128.957031 C 59.3125 131.953125 44.988281 152.820312 42.730469 153.503906 C 40.484375 154.183594 35.296875 154.667969 33.050781 158.214844 C 31.707031 160.316406 27.226562 169.769531 25.59375 175.347656 C 24.480469 179.164062 25.882812 180.03125 25.882812 180.03125 " fill-opacity="1" fill-rule="evenodd"/><path stroke-linecap="round" transform="matrix(0.0775415, 0, 0, -0.0775323, 11.756997, 361.210875)" fill="none" stroke-linejoin="round" d="M 1305.006444 2686.077292 C 1305.006444 2686.077292 1173.524514 2684.313914 1168.184635 2663.959494 C 1162.995885 2643.756221 1156.346224 2626.626263 1224.958633 2635.896593 C 1293.571042 2645.066159 1331.353206 2674.640527 1326.567465 2679.376456 C 1321.781724 2684.313914 1305.006444 2686.077292 1305.006444 2686.077292 Z M 791.723157 2615.189498 C 791.723157 2615.189498 745.175532 2614.383382 744.26876 2604.659612 C 743.311612 2594.986224 746.9387 2584.053281 764.066614 2586.169334 C 781.194528 2588.436535 806.73527 2602.392412 803.712697 2607.682546 C 800.488619 2613.073444 791.723157 2615.189498 791.723157 2615.189498 Z M 341.86353 2404.440638 C 620.847026 2495.38056 729.861162 2100.434274 533.494663 1964.754934 C 592.132581 1961.883147 635.456129 1953.771609 665.933741 1976.090936 C 734.294269 2026.120488 774.292986 2213.743905 688.401534 2339.094888 C 660.896119 2410.889563 557.675248 2498.957698 443.875371 2480.215509 C 326.045397 2460.767969 267.911242 2357.081344 267.911242 2357.081344 C 267.911242 2357.081344 267.911242 2357.081344 278.591 2355.317966 C 285.64367 2354.159175 294.71139 2380.760991 341.86353 2404.440638 Z M 2195.960237 2447.064003 C 2452.47594 2458.803062 2514.94245 2179.433608 2450.863901 1973.571824 L 2658.565048 1976.090936 C 2758.964851 2342.017058 2567.736727 2735.351111 2149.009602 2676.353522 C 1966.194306 2650.557822 1859.900486 2509.739495 1824.536381 2461.725231 C 1803.378369 2433.007361 1817.634839 2430.589014 1841.059781 2453.210635 C 1876.272757 2487.369785 1956.975458 2564.253065 2089.313783 2603.198527 C 2263.212488 2654.538018 2390.513191 2600.679416 2476.656524 2490.846159 C 2400.840316 2541.379534 2281.549432 2566.923323 2173.190186 2542.034503 C 1960.300289 2493.36527 1815.770919 2294.556999 1834.813129 1982.842154 C 1836.425168 1957.449511 1956.219815 1977.148963 1956.219815 1977.148963 C 1956.219815 1977.148963 1936.069328 2023.954052 1935.464813 2103.205297 C 1933.600893 2297.479168 2030.373608 2433.66233 2195.960237 2447.064003 Z M 3612.640243 2018.210478 C 3612.640243 2018.210478 3945.224034 2036.045787 4042.047126 2071.313347 C 4072.121728 2082.195908 4096.856451 2099.88007 4116.503176 2118.924552 C 3902.908011 2056.551354 3080.213993 2086.881455 3080.213993 2086.881455 C 3080.213993 2086.881455 3020.367046 2075.6966 3017.747483 2107.084728 C 3015.178296 2138.422474 3093.765196 2370.483016 3157.894122 2444.796803 C 3202.174817 2496.438586 3410.933865 2500.015725 3471.334951 2472.507028 C 3506.547927 2456.435097 3545.236863 2396.984068 3592.69126 2391.643552 C 3640.196034 2386.454183 3986.885167 2377.838822 4037.009504 2399.251269 C 4087.133841 2420.613333 4094.136135 2448.12203 4123.152837 2453.764839 C 4152.169538 2459.357267 4251.612193 2469.030654 4259.420507 2461.977142 C 4264.508505 2457.493124 4269.949136 2358.391282 4241.083563 2265.990276 C 4234.182022 2241.101455 4190.606593 2098.822043 4071.970599 2037.960312 C 3941.798452 1971.002331 3788.705125 1965.712197 3788.705125 1965.712197 Z M 182.170918 2336.827688 C 182.170918 2336.827688 254.763049 2549.239161 303.224971 2586.169334 C 351.58614 2623.14989 396.773608 2617.406316 444.42951 2665.823637 C 491.883907 2714.089811 668.60368 2963.93528 702.909885 2979.805682 C 709.156536 2982.576704 737.87098 2993.761559 781.345657 3009.833489 C 763.008713 2954.110745 705.025686 2776.614156 713.942277 2772.230902 C 722.95962 2767.696502 794.896859 2961.970373 821.243621 3024.444336 C 919.124613 3060.2661 1063.301349 3111.303297 1198.914128 3155.438128 C 1166.975606 3084.600716 1106.624897 2834.201043 1106.624897 2834.201043 C 1106.624897 2834.201043 1106.624897 2834.201043 1108.891827 2830.321611 C 1110.201608 2827.8025 1190.09829 3069.939487 1251.557276 3172.316175 C 1397.597933 3218.617442 1524.546002 3252.92774 1558.701078 3245.47117 C 1622.578123 3231.515293 1723.884697 3117.449928 1802.471597 3027.416887 C 1786.905346 3040.969706 1772.951134 3051.600356 1763.228524 3055.882846 C 1725.345608 3072.609746 1582.932039 3059.409602 1551.295774 3039.206328 C 1519.659509 3018.851908 1541.573164 2950.38246 1541.573164 2950.38246 C 1541.573164 2950.38246 1551.295774 2934.461676 1575.526735 2929.272307 C 1599.556191 2923.931791 1692.903323 2938.038815 1731.592259 2943.379331 C 1755.0172 2946.553411 1788.618137 2934.461676 1811.388188 2924.485995 C 1487.166848 2867.15102 609.663505 2685.523088 609.663505 2685.523088 C 609.663505 2685.523088 548.103767 2668.896953 556.466219 2663.556437 C 561.151207 2660.634267 1341.327697 2784.876842 2042.111267 2844.025577 C 2249.157523 2861.558593 2452.47594 2867.705224 2623.603953 2868.864016 C 2624.510724 2865.186113 2625.568625 2861.205917 2626.928783 2857.024192 C 2638.364184 2823.671157 2801.079369 2653.883049 2894.325749 2627.533144 C 2987.572128 2601.233621 3159.103151 2623.956005 3155.627192 2631.916397 C 3152.05048 2639.876789 3033.263358 2635.342389 2956.842635 2662.800703 C 2880.220408 2690.057488 2748.335469 2819.287903 2741.282798 2843.118697 C 2738.360977 2852.943232 2741.534679 2861.860886 2746.219667 2868.864016 C 2814.680948 2868.612104 2875.333914 2867.554078 2925.458251 2866.395286 C 2964.147187 2858.938717 3004.750419 2848.308067 3042.985968 2833.344545 C 3180.210786 2779.63709 3301.617472 2663.556437 3298.040761 2650.406675 C 3294.564801 2637.256914 3271.693998 2635.342389 3271.693998 2635.342389 C 3271.693998 2635.342389 3325.294295 2623.14989 3329.828154 2664.513699 C 3333.404866 2698.672849 3268.772178 2804.777822 3243.130683 2841.60723 C 3268.621049 2835.510981 3314.16115 2822.764277 3331.540946 2806.138142 C 3356.12454 2782.307348 3460.806321 2579.115822 3515.313389 2551.909419 C 3569.820457 2524.602252 4140.683761 2514.878482 4160.128981 2545.762788 C 4179.423072 2576.495947 4063.30589 2829.767407 4063.30589 2829.767407 C 4063.30589 2829.767407 3802.155575 2893.198632 3467.858992 2914.208021 C 3447.255119 2915.568341 3426.097107 2916.878279 3404.284205 2918.087452 C 3402.017275 2918.188217 3399.901474 2918.49051 3397.483415 2918.591275 C 3283.935419 2926.198991 2789.795096 2946.402264 2496.051368 2938.290726 C 2359.380689 2934.461676 2087.197982 2907.759096 1995.71477 3007.566289 C 1970.174028 3035.528426 1820.15365 3170.300886 1712.298167 3257.965962 L 2168.656327 3010.085401 L 3013.062495 2994.315763 C 3013.062495 2994.315763 2877.600844 3112.260559 2729.847397 3173.777259 C 2535.546323 3254.791882 1831.186042 3338.829438 1593.057659 3336.008033 C 1581.874138 3336.965296 1568.826698 3336.310327 1555.376248 3334.546949 L 1555.275495 3334.546949 C 1512.203829 3329.105668 1465.505075 3314.091764 1465.505075 3314.091764 C 1465.505075 3314.091764 695.857214 3034.319252 654.649468 2995.575319 C 613.290593 2956.93215 428.561001 2687.790288 399.443547 2678.973398 C 370.477222 2670.206891 303.577604 2663.959494 274.611279 2618.212431 C 257.28186 2591.106793 199.500337 2469.181801 178.443078 2397.235979 C 164.085856 2348.012543 182.170918 2336.827688 182.170918 2336.827688 Z M 182.170918 2336.827688 " stroke="#000000" stroke-width="2.268" stroke-opacity="1" stroke-miterlimit="10"/><g clip-path="url(#2cf4c7a21c)"><path fill="#ff1616" d="M 29.925781 146.058594 C 22.046875 113.457031 16.097656 87.3125 16.316406 83.746094 C 18.003906 56.703125 51.628906 38.9375 97.289062 29.929688 C 122.847656 24.886719 152.605469 22.359375 182.414062 22.359375 C 212.214844 22.359375 241.964844 24.875 267.523438 29.929688 C 313.117188 38.925781 346.691406 56.679688 348.382812 83.746094 C 348.578125 86.914062 343.90625 107.859375 337.351562 135.316406 C 331.753906 133.605469 324.925781 131.757812 317.792969 129.945312 C 323.78125 105.28125 327.964844 87.0625 327.839844 84.949219 C 326.855469 69.136719 300.105469 57.351562 263.578125 50.144531 C 239.105469 45.3125 210.738281 42.898438 182.414062 42.898438 C 154.089844 42.898438 125.714844 45.320312 101.234375 50.144531 C 64.644531 57.371094 37.84375 69.15625 36.855469 84.949219 C 36.730469 87.054688 40.855469 105.003906 46.773438 129.398438 L 44.523438 134.148438 C 42.898438 137.625 35.523438 142.585938 30.695312 145.460938 C 30.441406 145.617188 30.183594 145.8125 29.925781 146.058594 Z M 176.980469 359.707031 L 71.046875 297.839844 C 68.285156 296.222656 66.550781 293.53125 66.066406 290.601562 C 65.683594 289.097656 64.796875 285.621094 63.519531 280.613281 L 84.644531 280.363281 L 85.109375 282.179688 L 182.34375 338.964844 L 279.585938 282.179688 L 280.652344 278.023438 L 301.910156 277.765625 C 299.734375 286.28125 298.425781 291.386719 298.40625 291.46875 C 297.695312 294.242188 295.917969 296.457031 293.632812 297.800781 L 293.652344 297.839844 L 187.539062 359.800781 C 184.160156 361.78125 180.117188 361.605469 176.980469 359.707031 " fill-opacity="1" fill-rule="nonzero"/></g><path fill="#1c2f51" d="M 327.585938 145.417969 C 327.789062 145.492188 331.78125 146.347656 334.058594 149.242188 C 336.351562 152.140625 337.535156 155.851562 337.945312 155.71875 C 338.359375 155.582031 336.855469 147.503906 333.617188 144.769531 C 330.378906 142.046875 325.5 141.5 325.5 141.5 C 325.5 141.5 325.367188 144.367188 325.5 144.632812 C 325.636719 144.914062 327.585938 145.417969 327.585938 145.417969 " fill-opacity="1" fill-rule="evenodd"/><path fill="#fdfdfc" d="M 301.960938 160.253906 C 301.960938 160.253906 293.765625 143.769531 294.273438 142.316406 C 294.773438 140.851562 296.179688 141.984375 296.664062 142.53125 C 297.160156 143.089844 303.042969 160.378906 302.652344 160.542969 C 302.25 160.707031 301.960938 160.253906 301.960938 160.253906 Z M 313.839844 161.429688 C 313.839844 161.429688 305.640625 144.945312 306.148438 143.480469 C 306.652344 142.027344 308.066406 143.152344 308.550781 143.707031 C 309.035156 144.253906 314.921875 161.542969 314.53125 161.710938 C 314.140625 161.875 313.839844 161.429688 313.839844 161.429688 Z M 325.328125 160.925781 C 325.328125 160.925781 318.398438 145.644531 319.019531 144.296875 C 319.625 142.945312 320.953125 143.988281 321.398438 144.5 C 321.839844 145.015625 326.398438 161.039062 325.988281 161.191406 C 325.585938 161.347656 325.328125 160.925781 325.328125 160.925781 Z M 290.941406 159.925781 C 290.941406 159.925781 281.648438 143.957031 282.0625 142.46875 C 282.464844 140.996094 283.949219 142.035156 284.476562 142.5625 C 285 143.089844 292.019531 159.988281 291.640625 160.171875 C 291.257812 160.359375 290.941406 159.925781 290.941406 159.925781 " fill-opacity="1" fill-rule="evenodd"/><g clip-path="url(#99f52d3b65)"><path fill="#ff1616" d="M 11.757812 277.496094 L 370.996094 277.496094 C 370.996094 277.496094 350.1875 281.589844 311.777344 283.5 C 278.957031 285.128906 212.480469 285.363281 193.863281 285.40625 L 193.851562 285.40625 C 193.851562 285.40625 192.972656 285.40625 191.378906 285.40625 C 189.777344 285.40625 188.898438 285.40625 188.898438 285.40625 L 188.890625 285.40625 C 170.269531 285.363281 103.792969 285.128906 70.972656 283.5 C 32.566406 281.589844 11.757812 277.496094 11.757812 277.496094 " fill-opacity="1" fill-rule="evenodd"/></g><g clip-path="url(#4ddf7fd2d7)"><path fill="#ff1616" d="M 11.757812 211.464844 L 370.996094 211.464844 C 370.996094 211.464844 350.1875 207.367188 311.777344 205.464844 C 278.957031 203.835938 212.480469 203.597656 193.863281 203.554688 L 193.851562 203.554688 C 193.851562 203.554688 192.972656 203.554688 191.378906 203.554688 C 189.777344 203.554688 188.898438 203.554688 188.898438 203.554688 L 188.890625 203.554688 C 170.269531 203.597656 103.792969 203.835938 70.972656 205.464844 C 32.566406 207.367188 11.757812 211.464844 11.757812 211.464844 " fill-opacity="1" fill-rule="evenodd"/></g><g clip-path="url(#630e37505a)"><g clip-path="url(#e96745eb6b)"><g clip-path="url(#fd10839b6f)"><path fill="#1c2f51" d="M 190.65625 197.644531 L 196.84375 185.972656 L 189.84375 174.8125 L 176.664062 175.324219 L 170.476562 187 L 177.46875 198.15625 Z M 200.40625 207.125 C 195.847656 211.683594 192.257812 212.011719 184.574219 212.308594 C 173.523438 212.738281 163.566406 206.183594 159.578125 195.9375 L 76.417969 199.171875 C 75.117188 203.867188 72.609375 208.160156 69.140625 211.628906 C 64.089844 216.679688 57.378906 219.613281 50.246094 219.890625 C 45.828125 220.0625 30.890625 220.015625 24.210938 212.148438 C 23.980469 211.878906 23.914062 211.503906 24.039062 211.164062 C 24.363281 210.277344 25.5625 207.667969 25.957031 206.8125 C 26.007812 206.703125 26.078125 206.605469 26.160156 206.523438 C 26.332031 206.347656 26.570312 206.242188 26.828125 206.230469 L 54.3125 205.160156 L 61.695312 191.234375 L 53.398438 177.996094 L 24.109375 183.253906 C 23.746094 183.316406 23.378906 183.179688 23.152344 182.890625 C 22.925781 182.601562 22.875 182.210938 23.023438 181.875 L 24.914062 177.59375 L 24.96875 177.488281 C 26.1875 175.417969 27.667969 173.507812 29.371094 171.804688 C 34.421875 166.753906 41.125 163.820312 48.25 163.542969 C 60.5 163.066406 71.722656 170.691406 75.816406 182.167969 L 158.972656 178.933594 C 160.21875 174.921875 162.441406 171.238281 165.4375 168.246094 C 170.070312 163.609375 176.214844 160.917969 182.742188 160.664062 C 189.628906 160.394531 196.207031 162.832031 201.261719 167.527344 C 206.316406 172.21875 209.234375 178.59375 209.480469 185.480469 C 209.605469 189 207.546875 198.320312 205.300781 201.296875 C 203.296875 203.941406 201.789062 205.742188 200.40625 207.125 " fill-opacity="1" fill-rule="nonzero"/></g></g></g><g clip-path="url(#292054022e)"><g clip-path="url(#2c9b5c1e43)"><g clip-path="url(#f9ac416d59)"><path fill="#ffffff" d="M 171.625 186.953125 L 177.273438 176.296875 L 189.304688 175.832031 L 195.695312 186.015625 L 190.042969 196.671875 L 178.007812 197.140625 Z M 28.667969 171.101562 L 30.074219 172.507812 L 28.667969 171.101562 C 26.90625 172.863281 25.371094 174.84375 24.109375 176.988281 C 24.070312 177.054688 24.035156 177.121094 24.003906 177.195312 L 22.113281 181.472656 C 21.816406 182.148438 21.914062 182.929688 22.367188 183.507812 C 22.820312 184.082031 23.558594 184.363281 24.28125 184.234375 L 52.910156 179.097656 L 60.546875 191.277344 L 53.703125 204.1875 L 26.789062 205.234375 C 26.277344 205.253906 25.804688 205.472656 25.457031 205.820312 C 25.292969 205.984375 25.152344 206.179688 25.054688 206.398438 C 24.363281 207.902344 23.40625 209.996094 23.105469 210.824219 C 22.855469 211.5 22.992188 212.25 23.453125 212.796875 C 30.417969 221 45.75 221.0625 50.285156 220.886719 C 57.667969 220.597656 64.613281 217.5625 69.84375 212.332031 C 73.261719 208.914062 75.773438 204.722656 77.171875 200.140625 L 158.917969 196.957031 C 160.894531 201.632812 164.238281 205.742188 168.441406 208.632812 C 173.21875 211.914062 178.804688 213.527344 184.605469 213.304688 C 192.355469 213 196.296875 212.644531 201.109375 207.828125 C 202.527344 206.410156 204.0625 204.578125 206.09375 201.894531 C 208.492188 198.71875 210.609375 189.179688 210.472656 185.441406 C 210.222656 178.289062 207.191406 171.667969 201.941406 166.792969 C 196.691406 161.921875 189.859375 159.390625 182.707031 159.667969 C 175.929688 159.933594 169.546875 162.730469 164.734375 167.542969 C 161.792969 170.480469 159.570312 174.0625 158.238281 177.964844 L 76.496094 181.148438 C 74.445312 175.832031 70.804688 171.148438 66.132812 167.84375 C 60.875 164.128906 54.675781 162.296875 48.214844 162.546875 C 40.839844 162.832031 33.894531 165.871094 28.667969 171.101562 Z M 191.265625 198.617188 L 197.992188 185.925781 L 190.382812 173.796875 L 176.050781 174.351562 L 169.328125 187.042969 L 176.929688 199.175781 L 191.265625 198.617188 M 30.074219 172.507812 C 34.757812 167.820312 41.152344 164.816406 48.285156 164.539062 C 60.695312 164.054688 71.449219 171.960938 75.113281 183.195312 L 159.722656 179.902344 C 160.894531 175.714844 163.132812 171.953125 166.140625 168.949219 C 170.425781 164.664062 176.265625 161.914062 182.777344 161.660156 C 196.464844 161.125 208 171.828125 208.484375 185.519531 C 208.613281 189.035156 206.503906 198.050781 204.503906 200.695312 C 202.660156 203.140625 201.128906 205 199.703125 206.421875 C 195.433594 210.691406 192.167969 211.015625 184.539062 211.3125 C 173.460938 211.746094 163.804688 204.816406 160.257812 194.910156 L 75.644531 198.207031 C 74.429688 203.085938 71.898438 207.464844 68.4375 210.925781 C 63.75 215.613281 57.351562 218.617188 50.210938 218.894531 C 41.550781 219.234375 30.175781 217.628906 24.972656 211.503906 C 25.28125 210.667969 26.4375 208.144531 26.863281 207.226562 L 54.925781 206.132812 L 62.847656 191.1875 L 53.886719 176.898438 L 23.9375 182.273438 L 25.824219 177.992188 C 27.003906 175.988281 28.433594 174.144531 30.074219 172.507812 " fill-opacity="1" fill-rule="nonzero"/></g></g></g><g clip-path="url(#2d9ca6b877)"><g clip-path="url(#90416b3bed)"><g clip-path="url(#848253b16a)"><path fill="#1c2f51" d="M 188.765625 201.921875 L 194.953125 190.25 L 187.957031 179.09375 L 174.773438 179.605469 L 168.585938 191.277344 L 175.582031 202.4375 Z M 199.996094 209.003906 C 195.359375 213.640625 189.210938 216.332031 182.683594 216.585938 C 171.632812 217.015625 161.683594 210.464844 157.6875 200.214844 L 74.527344 203.453125 C 73.226562 208.144531 70.722656 212.4375 67.25 215.910156 C 62.203125 220.960938 55.492188 223.894531 48.359375 224.171875 C 38.703125 224.546875 29.65625 220.023438 24.152344 212.074219 C 23.945312 211.773438 23.917969 211.386719 24.082031 211.058594 C 24.132812 210.964844 24.195312 210.875 24.269531 210.800781 C 24.445312 210.625 24.683594 210.519531 24.9375 210.507812 L 52.425781 209.441406 L 59.808594 195.507812 L 51.460938 182.195312 L 23.972656 183.269531 C 23.609375 183.28125 23.265625 183.097656 23.082031 182.785156 C 22.894531 182.472656 22.894531 182.082031 23.078125 181.769531 C 24.296875 179.699219 25.78125 177.785156 27.480469 176.085938 C 32.53125 171.035156 39.238281 168.097656 46.363281 167.820312 C 58.613281 167.34375 69.839844 174.972656 73.925781 186.449219 L 157.082031 183.210938 C 158.328125 179.199219 160.554688 175.515625 163.546875 172.523438 C 168.183594 167.886719 174.328125 165.195312 180.855469 164.941406 C 187.742188 164.675781 194.316406 167.113281 199.375 171.804688 C 204.433594 176.496094 207.351562 182.871094 207.59375 189.757812 C 207.847656 196.90625 205.078125 203.921875 199.996094 209.003906 " fill-opacity="1" fill-rule="nonzero"/></g></g></g><g clip-path="url(#99111bbc6a)"><g clip-path="url(#409d51773f)"><g clip-path="url(#501e26c919)"><path fill="#ffffff" d="M 169.734375 191.234375 L 175.382812 180.578125 L 187.417969 180.109375 L 193.804688 190.296875 L 188.15625 200.949219 L 176.121094 201.417969 Z M 26.777344 175.382812 C 25.015625 177.144531 23.484375 179.125 22.222656 181.265625 C 21.851562 181.894531 21.851562 182.671875 22.222656 183.296875 C 22.597656 183.921875 23.277344 184.289062 24.007812 184.261719 L 50.921875 183.210938 L 58.660156 195.554688 L 51.816406 208.46875 L 24.902344 209.515625 C 24.394531 209.53125 23.917969 209.746094 23.566406 210.097656 C 23.417969 210.246094 23.292969 210.421875 23.195312 210.613281 C 22.867188 211.265625 22.921875 212.042969 23.335938 212.640625 C 29.03125 220.871094 38.398438 225.554688 48.394531 225.167969 C 55.78125 224.878906 62.726562 221.839844 67.953125 216.613281 C 71.371094 213.195312 73.886719 209.003906 75.28125 204.417969 L 157.027344 201.238281 C 159.007812 205.914062 162.347656 210.019531 166.554688 212.910156 C 171.328125 216.191406 176.917969 217.808594 182.71875 217.582031 C 189.5 217.320312 195.882812 214.523438 200.699219 209.707031 C 205.976562 204.429688 208.851562 197.144531 208.589844 189.722656 C 208.335938 182.566406 205.304688 175.945312 200.054688 171.074219 C 194.800781 166.199219 187.96875 163.667969 180.820312 163.949219 C 174.042969 164.210938 167.660156 167.007812 162.84375 171.820312 C 159.90625 174.757812 157.679688 178.339844 156.351562 182.246094 L 74.609375 185.425781 C 72.558594 180.113281 68.917969 175.429688 64.246094 172.125 C 58.984375 168.40625 52.789062 166.574219 46.328125 166.828125 C 38.949219 167.113281 32.007812 170.152344 26.777344 175.382812 Z M 189.375 202.894531 L 196.101562 190.207031 L 188.496094 178.074219 L 174.164062 178.632812 L 167.4375 191.324219 L 175.042969 203.453125 L 189.375 202.894531 M 28.183594 176.789062 C 32.871094 172.101562 39.265625 169.09375 46.398438 168.816406 C 58.808594 168.332031 69.5625 176.242188 73.222656 187.472656 L 157.835938 184.179688 C 159.003906 179.992188 161.246094 176.230469 164.25 173.226562 C 168.539062 168.941406 174.378906 166.191406 180.886719 165.9375 C 194.578125 165.40625 206.113281 176.109375 206.597656 189.800781 C 206.851562 196.976562 204.019531 203.574219 199.292969 208.300781 C 195.007812 212.589844 189.160156 215.339844 182.648438 215.589844 C 171.574219 216.023438 161.917969 209.097656 158.371094 199.191406 L 73.753906 202.484375 C 72.539062 207.363281 70.011719 211.742188 66.546875 215.207031 C 61.859375 219.894531 55.464844 222.894531 48.324219 223.175781 C 38.699219 223.550781 30.070312 218.867188 24.972656 211.503906 L 53.035156 210.410156 L 60.957031 195.464844 L 52 181.179688 L 23.9375 182.273438 C 25.117188 180.269531 26.546875 178.425781 28.183594 176.789062 " fill-opacity="1" fill-rule="nonzero"/></g></g></g><g clip-path="url(#246a742c10)"><g clip-path="url(#1bfe002355)"><g clip-path="url(#dc2ae66a36)"><path fill="#1c2f51" d="M 77.613281 195.1875 L 156.589844 192.113281 " fill-opacity="1" fill-rule="nonzero"/></g></g></g><g clip-path="url(#2265997ff3)"><g clip-path="url(#f5c7d72839)"><g clip-path="url(#e49c13163d)"><path fill="#ffffff" d="M 77.648438 196.183594 L 156.625 193.105469 C 157.175781 193.085938 157.605469 192.621094 157.585938 192.074219 C 157.566406 191.523438 157.105469 191.097656 156.554688 191.117188 L 77.578125 194.191406 C 77.027344 194.214844 76.597656 194.675781 76.617188 195.226562 C 76.636719 195.773438 77.097656 196.203125 77.648438 196.183594 " fill-opacity="1" fill-rule="nonzero"/></g></g></g><g fill="#1c2f51" fill-opacity="1"><g transform="translate(64.323454, 97.196821)"><g><path d="M 13.359375 0.3125 C 9.546875 0.3125 6.503906 -0.445312 4.234375 -1.96875 C 1.960938 -3.5 0.828125 -5.726562 0.828125 -8.65625 C 0.828125 -8.945312 0.859375 -9.382812 0.921875 -9.96875 L 11.28125 -9.96875 C 11.195312 -9.0625 11.335938 -8.390625 11.703125 -7.953125 C 12.066406 -7.515625 12.675781 -7.296875 13.53125 -7.296875 C 14.050781 -7.296875 14.488281 -7.425781 14.84375 -7.6875 C 15.195312 -7.945312 15.375 -8.328125 15.375 -8.828125 C 15.375 -9.523438 15.03125 -10.109375 14.34375 -10.578125 C 13.65625 -11.046875 12.550781 -11.601562 11.03125 -12.25 C 9.351562 -12.957031 7.976562 -13.628906 6.90625 -14.265625 C 5.84375 -14.910156 4.914062 -15.789062 4.125 -16.90625 C 3.332031 -18.019531 2.9375 -19.410156 2.9375 -21.078125 C 2.9375 -23.273438 3.484375 -25.171875 4.578125 -26.765625 C 5.679688 -28.367188 7.210938 -29.578125 9.171875 -30.390625 C 11.140625 -31.210938 13.382812 -31.625 15.90625 -31.625 C 18.15625 -31.625 20.164062 -31.269531 21.9375 -30.5625 C 23.707031 -29.863281 25.097656 -28.847656 26.109375 -27.515625 C 27.117188 -26.179688 27.625 -24.609375 27.625 -22.796875 C 27.625 -22.554688 27.59375 -22.144531 27.53125 -21.5625 L 17.046875 -21.5625 C 17.097656 -21.914062 17.125 -22.148438 17.125 -22.265625 C 17.125 -22.828125 16.960938 -23.257812 16.640625 -23.5625 C 16.316406 -23.875 15.878906 -24.03125 15.328125 -24.03125 C 14.828125 -24.03125 14.414062 -23.878906 14.09375 -23.578125 C 13.769531 -23.285156 13.609375 -22.90625 13.609375 -22.4375 C 13.609375 -21.800781 13.945312 -21.238281 14.625 -20.75 C 15.300781 -20.269531 16.367188 -19.675781 17.828125 -18.96875 C 19.492188 -18.175781 20.875 -17.429688 21.96875 -16.734375 C 23.070312 -16.035156 24.019531 -15.101562 24.8125 -13.9375 C 25.601562 -12.78125 26 -11.367188 26 -9.703125 C 26 -7.804688 25.492188 -6.09375 24.484375 -4.5625 C 23.472656 -3.039062 22.015625 -1.847656 20.109375 -0.984375 C 18.210938 -0.117188 15.960938 0.3125 13.359375 0.3125 Z M 13.359375 0.3125 "/></g></g></g><g fill="#1c2f51" fill-opacity="1"><g transform="translate(92.524342, 97.196821)"><g><path d="M 29.03125 -20.421875 C 28.675781 -18.460938 27.910156 -16.679688 26.734375 -15.078125 C 25.566406 -13.484375 24.007812 -12.21875 22.0625 -11.28125 C 20.125 -10.34375 17.894531 -9.875 15.375 -9.875 L 11.5 -9.875 L 9.75 0 L 0 0 L 5.484375 -31.09375 L 19.109375 -31.09375 C 22.410156 -31.09375 24.925781 -30.34375 26.65625 -28.84375 C 28.382812 -27.351562 29.25 -25.304688 29.25 -22.703125 C 29.25 -22.054688 29.175781 -21.296875 29.03125 -20.421875 Z M 15.640625 -17.5625 C 17.628906 -17.5625 18.800781 -18.515625 19.15625 -20.421875 C 19.207031 -20.773438 19.234375 -21.023438 19.234375 -21.171875 C 19.234375 -22.578125 18.367188 -23.28125 16.640625 -23.28125 L 13.875 -23.28125 L 12.875 -17.5625 Z M 15.640625 -17.5625 "/></g></g></g><g fill="#1c2f51" fill-opacity="1"><g transform="translate(121.032722, 97.196821)"><g><path d="M 13.875 -23.359375 L 13.21875 -19.5 L 22.890625 -19.5 L 21.5625 -12.171875 L 11.90625 -12.171875 L 11.109375 -7.78125 L 22.09375 -7.78125 L 20.734375 0 L 0 0 L 5.484375 -31.09375 L 26.21875 -31.09375 L 24.859375 -23.359375 Z M 13.875 -23.359375 "/></g></g></g><g fill="#1c2f51" fill-opacity="1"><g transform="translate(145.455925, 97.196821)"><g><path d="M 13.875 -23.359375 L 13.21875 -19.5 L 22.890625 -19.5 L 21.5625 -12.171875 L 11.90625 -12.171875 L 11.109375 -7.78125 L 22.09375 -7.78125 L 20.734375 0 L 0 0 L 5.484375 -31.09375 L 26.21875 -31.09375 L 24.859375 -23.359375 Z M 13.875 -23.359375 "/></g></g></g><g fill="#1c2f51" fill-opacity="1"><g transform="translate(169.879128, 97.196821)"><g><path d="M 18.453125 -31.09375 C 21.316406 -31.09375 23.773438 -30.570312 25.828125 -29.53125 C 27.878906 -28.5 29.445312 -27.050781 30.53125 -25.1875 C 31.613281 -23.332031 32.15625 -21.1875 32.15625 -18.75 C 32.15625 -17.789062 32.066406 -16.753906 31.890625 -15.640625 C 31.359375 -12.679688 30.222656 -10.015625 28.484375 -7.640625 C 26.742188 -5.265625 24.53125 -3.394531 21.84375 -2.03125 C 19.164062 -0.675781 16.203125 0 12.953125 0 L 0 0 L 5.484375 -31.09375 Z M 13.609375 -8.703125 C 15.804688 -8.703125 17.660156 -9.300781 19.171875 -10.5 C 20.679688 -11.695312 21.625 -13.410156 22 -15.640625 C 22.09375 -16.222656 22.140625 -16.765625 22.140625 -17.265625 C 22.140625 -18.992188 21.601562 -20.3125 20.53125 -21.21875 C 19.46875 -22.125 17.984375 -22.578125 16.078125 -22.578125 L 13.75 -22.578125 L 11.28125 -8.703125 Z M 13.609375 -8.703125 "/></g></g></g><g fill="#1c2f51" fill-opacity="1"><g transform="translate(202.5166, 97.196821)"><g/></g></g><g fill="#1c2f51" fill-opacity="1"><g transform="translate(209.98413, 97.196821)"><g><path d="M 1.890625 -15.59375 C 2.410156 -18.664062 3.503906 -21.398438 5.171875 -23.796875 C 6.847656 -26.203125 8.957031 -28.070312 11.5 -29.40625 C 14.050781 -30.738281 16.894531 -31.40625 20.03125 -31.40625 C 22.71875 -31.40625 25.035156 -30.898438 26.984375 -29.890625 C 28.929688 -28.878906 30.414062 -27.453125 31.4375 -25.609375 C 32.46875 -23.765625 32.96875 -21.613281 32.9375 -19.15625 L 22.65625 -19.15625 C 22.363281 -20.175781 21.835938 -20.972656 21.078125 -21.546875 C 20.316406 -22.117188 19.378906 -22.40625 18.265625 -22.40625 C 16.628906 -22.40625 15.222656 -21.785156 14.046875 -20.546875 C 12.878906 -19.316406 12.117188 -17.664062 11.765625 -15.59375 C 11.648438 -15.007812 11.59375 -14.378906 11.59375 -13.703125 C 11.59375 -12.179688 11.960938 -10.976562 12.703125 -10.09375 C 13.453125 -9.21875 14.519531 -8.78125 15.90625 -8.78125 C 17.007812 -8.78125 18.046875 -9.066406 19.015625 -9.640625 C 19.984375 -10.210938 20.789062 -11.007812 21.4375 -12.03125 L 31.71875 -12.03125 C 30.832031 -9.570312 29.554688 -7.421875 27.890625 -5.578125 C 26.222656 -3.734375 24.238281 -2.304688 21.9375 -1.296875 C 19.632812 -0.285156 17.140625 0.21875 14.453125 0.21875 C 11.722656 0.21875 9.390625 -0.285156 7.453125 -1.296875 C 5.523438 -2.304688 4.0625 -3.738281 3.0625 -5.59375 C 2.070312 -7.457031 1.578125 -9.617188 1.578125 -12.078125 C 1.578125 -13.273438 1.679688 -14.445312 1.890625 -15.59375 Z M 1.890625 -15.59375 "/></g></g></g><g fill="#1c2f51" fill-opacity="1"><g transform="translate(243.060873, 97.196821)"><g><path d="M 20.78125 -4.703125 L 10.40625 -4.703125 L 8.03125 0 L -2.203125 0 L 14.671875 -31.09375 L 25.90625 -31.09375 L 31.75 0 L 21.484375 0 Z M 19.71875 -12.03125 L 18.453125 -20.6875 L 14.09375 -12.03125 Z M 19.71875 -12.03125 "/></g></g></g><g fill="#1c2f51" fill-opacity="1"><g transform="translate(277.016134, 97.196821)"><g><path d="M 19.984375 -31.09375 C 23.316406 -31.09375 25.847656 -30.34375 27.578125 -28.84375 C 29.304688 -27.351562 30.171875 -25.367188 30.171875 -22.890625 C 30.171875 -22.148438 30.113281 -21.488281 30 -20.90625 C 29.613281 -18.800781 28.703125 -16.945312 27.265625 -15.34375 C 25.835938 -13.75 23.984375 -12.601562 21.703125 -11.90625 L 26.359375 0 L 15.640625 0 L 11.734375 -11.15625 L 9.75 0 L 0 0 L 5.484375 -31.09375 Z M 12.875 -17.65625 L 16.734375 -17.65625 C 17.671875 -17.65625 18.410156 -17.867188 18.953125 -18.296875 C 19.492188 -18.722656 19.851562 -19.390625 20.03125 -20.296875 C 20.0625 -20.441406 20.078125 -20.628906 20.078125 -20.859375 C 20.078125 -21.503906 19.867188 -22.007812 19.453125 -22.375 C 19.046875 -22.738281 18.445312 -22.921875 17.65625 -22.921875 L 13.796875 -22.921875 Z M 12.875 -17.65625 "/></g></g></g><g fill="#1c2f51" fill-opacity="1"><g transform="translate(139.302795, 307.934741)"><g><path d="M 8.359375 -13.015625 C 9.753906 -13.015625 10.8125 -12.703125 11.53125 -12.078125 C 12.257812 -11.453125 12.625 -10.617188 12.625 -9.578125 C 12.625 -9.265625 12.597656 -8.988281 12.546875 -8.75 C 12.390625 -7.863281 12.007812 -7.085938 11.40625 -6.421875 C 10.8125 -5.753906 10.035156 -5.273438 9.078125 -4.984375 L 11.03125 0 L 6.546875 0 L 4.90625 -4.671875 L 4.078125 0 L 0 0 L 2.296875 -13.015625 Z M 5.390625 -7.390625 L 7 -7.390625 C 7.394531 -7.390625 7.703125 -7.476562 7.921875 -7.65625 C 8.148438 -7.832031 8.300781 -8.109375 8.375 -8.484375 C 8.382812 -8.546875 8.390625 -8.628906 8.390625 -8.734375 C 8.390625 -8.992188 8.304688 -9.203125 8.140625 -9.359375 C 7.972656 -9.515625 7.722656 -9.59375 7.390625 -9.59375 L 5.765625 -9.59375 Z M 5.390625 -7.390625 "/></g></g></g><g fill="#1c2f51" fill-opacity="1"><g transform="translate(151.615782, 307.934741)"><g><path d="M 5.09375 -3.25 L 10.3125 -3.25 L 9.734375 0 L 0 0 L 0.546875 -3.0625 L 6.875 -9.78125 L 1.734375 -9.78125 L 2.296875 -13.015625 L 12.03125 -13.015625 L 11.5 -9.9375 Z M 5.09375 -3.25 "/></g></g></g><g fill="#1c2f51" fill-opacity="1"><g transform="translate(163.193673, 307.934741)"><g><path d="M 5.8125 -9.78125 L 5.53125 -8.15625 L 9.578125 -8.15625 L 9.015625 -5.09375 L 4.984375 -5.09375 L 4.65625 -3.25 L 9.25 -3.25 L 8.671875 0 L 0 0 L 2.296875 -13.015625 L 10.96875 -13.015625 L 10.40625 -9.78125 Z M 5.8125 -9.78125 "/></g></g></g><g fill="#1c2f51" fill-opacity="1"><g transform="translate(173.411616, 307.934741)"><g><path d="M 5.59375 0.125 C 4 0.125 2.722656 -0.191406 1.765625 -0.828125 C 0.816406 -1.460938 0.34375 -2.394531 0.34375 -3.625 C 0.34375 -3.738281 0.359375 -3.921875 0.390625 -4.171875 L 4.71875 -4.171875 C 4.6875 -3.785156 4.742188 -3.5 4.890625 -3.3125 C 5.046875 -3.132812 5.300781 -3.046875 5.65625 -3.046875 C 5.875 -3.046875 6.054688 -3.097656 6.203125 -3.203125 C 6.359375 -3.316406 6.4375 -3.476562 6.4375 -3.6875 C 6.4375 -3.988281 6.289062 -4.234375 6 -4.421875 C 5.707031 -4.617188 5.242188 -4.851562 4.609375 -5.125 C 3.910156 -5.414062 3.335938 -5.695312 2.890625 -5.96875 C 2.441406 -6.238281 2.050781 -6.601562 1.71875 -7.0625 C 1.394531 -7.53125 1.234375 -8.113281 1.234375 -8.8125 C 1.234375 -9.738281 1.460938 -10.535156 1.921875 -11.203125 C 2.378906 -11.867188 3.019531 -12.375 3.84375 -12.71875 C 4.664062 -13.0625 5.601562 -13.234375 6.65625 -13.234375 C 7.59375 -13.234375 8.429688 -13.082031 9.171875 -12.78125 C 9.921875 -12.488281 10.503906 -12.0625 10.921875 -11.5 C 11.347656 -10.945312 11.5625 -10.289062 11.5625 -9.53125 C 11.5625 -9.4375 11.546875 -9.265625 11.515625 -9.015625 L 7.125 -9.015625 C 7.15625 -9.171875 7.171875 -9.269531 7.171875 -9.3125 C 7.171875 -9.550781 7.101562 -9.734375 6.96875 -9.859375 C 6.832031 -9.984375 6.644531 -10.046875 6.40625 -10.046875 C 6.195312 -10.046875 6.023438 -9.984375 5.890625 -9.859375 C 5.765625 -9.742188 5.703125 -9.585938 5.703125 -9.390625 C 5.703125 -9.117188 5.84375 -8.878906 6.125 -8.671875 C 6.40625 -8.472656 6.847656 -8.226562 7.453125 -7.9375 C 8.148438 -7.601562 8.726562 -7.289062 9.1875 -7 C 9.65625 -6.707031 10.050781 -6.316406 10.375 -5.828125 C 10.707031 -5.347656 10.875 -4.757812 10.875 -4.0625 C 10.875 -3.257812 10.660156 -2.539062 10.234375 -1.90625 C 9.816406 -1.269531 9.207031 -0.769531 8.40625 -0.40625 C 7.613281 -0.0507812 6.675781 0.125 5.59375 0.125 Z M 5.59375 0.125 "/></g></g></g><g fill="#1c2f51" fill-opacity="1"><g transform="translate(185.210037, 307.934741)"><g><path d="M 5.09375 -3.25 L 10.3125 -3.25 L 9.734375 0 L 0 0 L 0.546875 -3.0625 L 6.875 -9.78125 L 1.734375 -9.78125 L 2.296875 -13.015625 L 12.03125 -13.015625 L 11.5 -9.9375 Z M 5.09375 -3.25 "/></g></g></g><g fill="#1c2f51" fill-opacity="1"><g transform="translate(196.787928, 307.934741)"><g><path d="M 6.375 0.125 C 5.269531 0.125 4.300781 -0.0976562 3.46875 -0.546875 C 2.632812 -1.003906 1.988281 -1.644531 1.53125 -2.46875 C 1.082031 -3.300781 0.859375 -4.25 0.859375 -5.3125 C 0.859375 -6.863281 1.179688 -8.238281 1.828125 -9.4375 C 2.472656 -10.632812 3.375 -11.566406 4.53125 -12.234375 C 5.6875 -12.898438 7.019531 -13.234375 8.53125 -13.234375 C 9.65625 -13.234375 10.632812 -13.007812 11.46875 -12.5625 C 12.3125 -12.113281 12.957031 -11.476562 13.40625 -10.65625 C 13.863281 -9.84375 14.09375 -8.90625 14.09375 -7.84375 C 14.09375 -6.300781 13.769531 -4.921875 13.125 -3.703125 C 12.488281 -2.492188 11.582031 -1.550781 10.40625 -0.875 C 9.238281 -0.207031 7.894531 0.125 6.375 0.125 Z M 7 -3.671875 C 7.632812 -3.671875 8.1875 -3.835938 8.65625 -4.171875 C 9.132812 -4.515625 9.492188 -4.960938 9.734375 -5.515625 C 9.984375 -6.078125 10.109375 -6.679688 10.109375 -7.328125 C 10.109375 -8.003906 9.925781 -8.53125 9.5625 -8.90625 C 9.195312 -9.28125 8.679688 -9.46875 8.015625 -9.46875 C 7.378906 -9.46875 6.820312 -9.300781 6.34375 -8.96875 C 5.863281 -8.632812 5.5 -8.1875 5.25 -7.625 C 5 -7.070312 4.875 -6.472656 4.875 -5.828125 C 4.875 -5.148438 5.050781 -4.617188 5.40625 -4.234375 C 5.769531 -3.859375 6.300781 -3.671875 7 -3.671875 Z M 11.28125 -15.78125 L 6.21875 -14.0625 L 6.703125 -16.78125 L 11.8125 -18.796875 Z M 11.28125 -15.78125 "/></g></g></g><g fill="#1c2f51" fill-opacity="1"><g transform="translate(211.269476, 307.934741)"><g><path d="M 21.046875 -13.015625 L 15.765625 0 L 10.6875 0 L 10.484375 -7.390625 L 7.6875 0 L 2.609375 0 L 1.921875 -13.015625 L 6.328125 -13.015625 L 6.0625 -4.8125 L 9.265625 -13.015625 L 13.703125 -13.015625 L 14.015625 -4.8125 L 16.640625 -13.015625 Z M 21.046875 -13.015625 "/></g></g></g><g fill="#1c2f51" fill-opacity="1"><g transform="translate(89.610516, 261.835578)"><g><path d="M 13.671875 0.3125 C 9.773438 0.3125 6.664062 -0.460938 4.34375 -2.015625 C 2.019531 -3.578125 0.859375 -5.859375 0.859375 -8.859375 C 0.859375 -9.160156 0.882812 -9.609375 0.9375 -10.203125 L 11.546875 -10.203125 C 11.460938 -9.273438 11.609375 -8.585938 11.984375 -8.140625 C 12.359375 -7.691406 12.976562 -7.46875 13.84375 -7.46875 C 14.382812 -7.46875 14.832031 -7.597656 15.1875 -7.859375 C 15.550781 -8.128906 15.734375 -8.519531 15.734375 -9.03125 C 15.734375 -9.75 15.378906 -10.347656 14.671875 -10.828125 C 13.972656 -11.304688 12.84375 -11.878906 11.28125 -12.546875 C 9.570312 -13.265625 8.171875 -13.953125 7.078125 -14.609375 C 5.984375 -15.265625 5.03125 -16.160156 4.21875 -17.296875 C 3.414062 -18.441406 3.015625 -19.867188 3.015625 -21.578125 C 3.015625 -23.828125 3.578125 -25.765625 4.703125 -27.390625 C 5.828125 -29.023438 7.390625 -30.257812 9.390625 -31.09375 C 11.398438 -31.9375 13.691406 -32.359375 16.265625 -32.359375 C 18.578125 -32.359375 20.640625 -32 22.453125 -31.28125 C 24.265625 -30.5625 25.6875 -29.519531 26.71875 -28.15625 C 27.757812 -26.800781 28.28125 -25.191406 28.28125 -23.328125 C 28.28125 -23.085938 28.25 -22.671875 28.1875 -22.078125 L 17.4375 -22.078125 C 17.5 -22.429688 17.53125 -22.671875 17.53125 -22.796875 C 17.53125 -23.359375 17.363281 -23.796875 17.03125 -24.109375 C 16.707031 -24.429688 16.257812 -24.59375 15.6875 -24.59375 C 15.175781 -24.59375 14.753906 -24.441406 14.421875 -24.140625 C 14.097656 -23.835938 13.9375 -23.445312 13.9375 -22.96875 C 13.9375 -22.3125 14.28125 -21.734375 14.96875 -21.234375 C 15.65625 -20.742188 16.75 -20.140625 18.25 -19.421875 C 19.957031 -18.609375 21.375 -17.84375 22.5 -17.125 C 23.625 -16.40625 24.585938 -15.453125 25.390625 -14.265625 C 26.203125 -13.085938 26.609375 -11.644531 26.609375 -9.9375 C 26.609375 -7.988281 26.09375 -6.234375 25.0625 -4.671875 C 24.03125 -3.117188 22.539062 -1.898438 20.59375 -1.015625 C 18.644531 -0.128906 16.335938 0.3125 13.671875 0.3125 Z M 13.671875 0.3125 "/></g></g></g><g fill="#1c2f51" fill-opacity="1"><g transform="translate(118.464668, 261.835578)"><g><path d="M 14.203125 -23.921875 L 13.53125 -19.953125 L 23.421875 -19.953125 L 22.078125 -12.453125 L 12.1875 -12.453125 L 11.375 -7.953125 L 22.609375 -7.953125 L 21.21875 0 L 0 0 L 5.625 -31.828125 L 26.84375 -31.828125 L 25.4375 -23.921875 Z M 14.203125 -23.921875 "/></g></g></g><g fill="#1c2f51" fill-opacity="1"><g transform="translate(143.453623, 261.835578)"><g><path d="M 20.453125 -31.828125 C 23.867188 -31.828125 26.457031 -31.0625 28.21875 -29.53125 C 29.988281 -28 30.875 -25.960938 30.875 -23.421875 C 30.875 -22.671875 30.816406 -21.992188 30.703125 -21.390625 C 30.316406 -19.234375 29.390625 -17.335938 27.921875 -15.703125 C 26.453125 -14.078125 24.546875 -12.90625 22.203125 -12.1875 L 26.96875 0 L 16 0 L 12 -11.421875 L 9.984375 0 L 0 0 L 5.625 -31.828125 Z M 13.171875 -18.078125 L 17.125 -18.078125 C 18.082031 -18.078125 18.835938 -18.289062 19.390625 -18.71875 C 19.953125 -19.15625 20.320312 -19.835938 20.5 -20.765625 C 20.53125 -20.921875 20.546875 -21.117188 20.546875 -21.359375 C 20.546875 -22.015625 20.332031 -22.53125 19.90625 -22.90625 C 19.488281 -23.28125 18.878906 -23.46875 18.078125 -23.46875 L 14.109375 -23.46875 Z M 13.171875 -18.078125 "/></g></g></g><g fill="#1c2f51" fill-opacity="1"><g transform="translate(173.566217, 261.835578)"><g><path d="M 13.984375 -31.828125 L 16.671875 -9.9375 L 27.0625 -31.828125 L 37.671875 -31.828125 L 21.359375 0 L 8.453125 0 L 3.375 -31.828125 Z M 13.984375 -31.828125 "/></g></g></g><g fill="#1c2f51" fill-opacity="1"><g transform="translate(207.858621, 261.835578)"><g><path d="M 15.59375 -31.828125 L 9.984375 0 L 0 0 L 5.625 -31.828125 Z M 15.59375 -31.828125 "/></g></g></g><g fill="#1c2f51" fill-opacity="1"><g transform="translate(222.330641, 261.835578)"><g><path d="M 1.9375 -15.953125 C 2.46875 -19.097656 3.585938 -21.898438 5.296875 -24.359375 C 7.003906 -26.816406 9.160156 -28.726562 11.765625 -30.09375 C 14.378906 -31.457031 17.289062 -32.140625 20.5 -32.140625 C 23.257812 -32.140625 25.632812 -31.625 27.625 -30.59375 C 29.613281 -29.5625 31.132812 -28.097656 32.1875 -26.203125 C 33.238281 -24.316406 33.75 -22.113281 33.71875 -19.59375 L 23.203125 -19.59375 C 22.898438 -20.644531 22.359375 -21.460938 21.578125 -22.046875 C 20.796875 -22.628906 19.835938 -22.921875 18.703125 -22.921875 C 17.023438 -22.921875 15.585938 -22.289062 14.390625 -21.03125 C 13.191406 -19.78125 12.410156 -18.085938 12.046875 -15.953125 C 11.929688 -15.359375 11.875 -14.71875 11.875 -14.03125 C 11.875 -12.46875 12.253906 -11.234375 13.015625 -10.328125 C 13.773438 -9.429688 14.859375 -8.984375 16.265625 -8.984375 C 17.410156 -8.984375 18.476562 -9.273438 19.46875 -9.859375 C 20.457031 -10.453125 21.28125 -11.269531 21.9375 -12.3125 L 32.453125 -12.3125 C 31.554688 -9.800781 30.253906 -7.597656 28.546875 -5.703125 C 26.835938 -3.816406 24.804688 -2.359375 22.453125 -1.328125 C 20.097656 -0.296875 17.546875 0.21875 14.796875 0.21875 C 12.003906 0.21875 9.617188 -0.296875 7.640625 -1.328125 C 5.660156 -2.359375 4.160156 -3.828125 3.140625 -5.734375 C 2.128906 -7.640625 1.625 -9.847656 1.625 -12.359375 C 1.625 -13.585938 1.726562 -14.785156 1.9375 -15.953125 Z M 1.9375 -15.953125 "/></g></g></g><g fill="#1c2f51" fill-opacity="1"><g transform="translate(256.173603, 261.835578)"><g><path d="M 14.203125 -23.921875 L 13.53125 -19.953125 L 23.421875 -19.953125 L 22.078125 -12.453125 L 12.1875 -12.453125 L 11.375 -7.953125 L 22.609375 -7.953125 L 21.21875 0 L 0 0 L 5.625 -31.828125 L 26.84375 -31.828125 L 25.4375 -23.921875 Z M 14.203125 -23.921875 "/></g></g></g></svg>