<?xml version="1.0" encoding="utf-8"?>
<!-- Generator: Adobe Illustrator 25.0.0, SVG Export Plug-In . SVG Version: 6.00 Build 0)  -->
<svg version="1.1" id="Warstwa_1" xmlns="http://www.w3.org/2000/svg" xmlns:xlink="http://www.w3.org/1999/xlink" x="0px" y="0px"
	 viewBox="0 0 466.38 710.76" style="enable-background:new 0 0 466.38 710.76;" xml:space="preserve">
<style type="text/css">
	.st0{fill:#DD4C4C;}
	.st1{fill:#AA3B4D;}
</style>
<g>
	<path class="st0" d="M235.03,0l0.79,0.91C69.45,0.91,0,154.7,0,232.26c0,77.6,19.73,108.38,19.73,108.38l213.48,370.12v-0.91
		l213.48-370.12c0,0,19.7-30.78,19.7-108.38C466.38,153.78,401.4,0,235.03,0z M233.21,329.47c-51.73,0-93.65-41.92-93.65-93.65
		c0-51.7,41.92-93.62,93.65-93.62c51.7,0,93.65,41.92,93.65,93.62C326.86,287.55,284.91,329.47,233.21,329.47z"/>
	<path class="st1" d="M233.21,98.31c-75.96,0-137.55,61.58-137.55,137.51c0,75.96,61.58,137.55,137.55,137.55
		s137.51-61.58,137.51-137.55C370.72,159.89,309.17,98.31,233.21,98.31z M233.21,329.47c-51.73,0-93.65-41.92-93.65-93.65
		c0-51.7,41.92-93.62,93.65-93.62c51.7,0,93.65,41.92,93.65,93.62C326.86,287.55,284.91,329.47,233.21,329.47z"/>
</g>
</svg>
