<?xml version="1.0" encoding="utf-8"?>
<!-- Generator: Adobe Illustrator 25.0.0, SVG Export Plug-In . SVG Version: 6.00 Build 0)  -->
<svg version="1.1" xmlns="http://www.w3.org/2000/svg" xmlns:xlink="http://www.w3.org/1999/xlink" x="0px" y="0px"
	 viewBox="0 0 532.05 315.64" style="enable-background:new 0 0 532.05 315.64;" xml:space="preserve">
<style type="text/css">
	.st0{fill-rule:evenodd;clip-rule:evenodd;}
	.st1{display:none;fill-rule:evenodd;clip-rule:evenodd;fill:#020912;}
</style>
<g id="Layer_1">
	<g>
		<g>
			<g>
				<path class="st0" d="M347.13,96.1c-4.84,0-8.76,4.3-8.76,9.61c0,5.31,3.92,9.61,8.76,9.61c4.84,0,8.76-4.3,8.76-9.61
					C355.89,100.4,351.97,96.1,347.13,96.1z M346.29,112.4c-3.51,0-6.36-2.87-6.36-6.41c0-3.54,2.85-6.41,6.36-6.41
					c3.51,0,6.36,2.87,6.36,6.41C352.65,109.53,349.8,112.4,346.29,112.4z"/>
				<path class="st0" d="M346.29,111.33c2.93,0,5.3-2.39,5.3-5.34c0-2.95-2.37-5.34-5.3-5.34s-5.3,2.39-5.3,5.34
					C340.99,108.94,343.36,111.33,346.29,111.33z"/>
				<path class="st0" d="M202.75,116.33c3.57,3.15,19.42,3.15,31.58,3.26c8.89,0.08,21.54,0.04,27.7,0.02
					c6.16,0.03,18.81,0.07,27.7-0.02c12.16-0.11,28.01-0.11,31.58-3.26c3.57-3.15,5.91-15.06,6.47-21.02
					c0.07-0.68,0.12-1.39,0.17-2.11l-65.91-0.56l-65.92,0.56c0.05,0.72,0.1,1.43,0.17,2.11
					C196.83,101.27,199.17,113.19,202.75,116.33z"/>
				<path class="st0" d="M317.84,59.01c-3.24-3.37-7.7-4.16-16.74-4.95c-8.42-0.73-35.41-1.37-39.08-1.45
					c-3.67,0.08-30.66,0.72-39.08,1.45c-9.04,0.79-13.5,1.57-16.74,4.95c-3.24,3.37-6.47,12.48-8.48,17.65
					c-0.05,0.12-0.09,0.24-0.13,0.35l64.43-0.55l64.43,0.55c-0.04-0.12-0.09-0.24-0.13-0.35C324.31,71.48,321.07,62.38,317.84,59.01
					z"/>
				<path class="st0" d="M339.26,62.94c-2.45,0-4.43,2-4.43,4.47c0,2.47,1.99,4.47,4.43,4.47s4.44-2,4.44-4.47
					C343.7,64.94,341.71,62.94,339.26,62.94z M338.96,67.66c-2.02,2.04-3.54,0.08-3.64-1.56c0.55-1.67,2.11-2.88,3.95-2.88
					c2.29,0,4.15,1.88,4.15,4.19c0,0.31-0.03,0.62-0.1,0.91C341.55,69.14,340.73,65.87,338.96,67.66z"/>
				<path class="st0" d="M322.72,53.71c0.73,1.12,5.62-13.26,6.46-14.22c0.84-0.96-4.5-5.17-4.5-5.17c0,1.07-4.33,12.81-5.96,15.51
					C318.73,49.83,321.99,52.58,322.72,53.71z"/>
				<path class="st0" d="M325.03,122.83c1.07,0,35.13-1.18,35.58-1.68c0.45-0.51,1.85-4.27,2.53-3.26c0.68,1.01,1.52,4.72,1.52,4.72
					c0-2.36-0.62-6.52-2.53-6.97c-1.91-0.45-7.14,0.17-8.49,0.28c-1.35,0.11-3.77,1.35-6.13,1.91c-2.36,0.56-5.17-0.96-6.58-1.63
					c-1.4-0.67-10.29,0.23-10.29,0.23s-3.65-0.11-3.99,0.51C326.32,117.55,323.96,122.83,325.03,122.83z"/>
				<path class="st0" d="M377.01,101.68c-0.06-1.71-0.13-3.41-0.24-5.11c-0.14-2.4-0.33-4.78-0.57-7.15
					c-0.13-1.3-0.28-2.6-0.44-3.89c0.15-2.74,0.25-5.47,0.27-8.21c0.05-5.26-0.06-10.65-0.56-15.89c-0.16-1.62-0.34-3.29-0.68-4.88
					c-0.2-0.95-0.5-2.34-1.33-2.94c-1.85-1.35-3.68-2.8-5.49-4.2c-1.46-1.14-2.94-2.28-4.37-3.45c-1.19-0.97-2.21-2.15-3.2-3.31
					c-0.07-0.09-0.15-0.18-0.23-0.28c2.99-0.19,6.82-0.47,7.5-0.68c1.14-0.34,1.87-2.47,2.04-3.68c0.17-1.21-0.92-3.57-1.51-4.86
					c-0.59-1.29-1.37-1.63-2.93-2c-1.56-0.36-10.07-1.71-12.64-1.71c-2.57,0-3.49,0.42-3.66,1.69c-0.17,1.26,1.03,5.03,1.03,5.03
					h-0.45c-0.97-1.83-1.96-3.65-2.96-5.46c-1.24-2.24-2.54-4.55-3.97-6.67c-1.89-2.81-3.81-5.61-5.81-8.35
					c-1.2-1.65-2.43-3.29-3.71-4.87c-1.06-1.3-2.2-2.64-3.42-3.79c-1.56-1.46-3.44-2.61-5.53-3.11c-0.72-0.17-1.67-0.3-2.45-0.23
					c-6.64-0.89-13.36-1.64-20.03-2.23c-2.22-0.2-4.44-0.37-6.67-0.51c-4.34-0.27-8.7-0.42-13.04-0.55
					c-6.64-0.2-13.29-0.32-19.93-0.4H262c-6.64,0.08-13.29,0.21-19.93,0.4c-4.35,0.13-8.7,0.28-13.04,0.55
					c-2.22,0.14-4.45,0.31-6.67,0.51c-6.67,0.59-13.39,1.34-20.03,2.23c-0.78-0.07-1.73,0.06-2.45,0.23
					c-2.09,0.5-3.97,1.65-5.53,3.11c-1.23,1.14-2.37,2.49-3.42,3.79c-1.28,1.58-2.51,3.22-3.71,4.87c-1.99,2.74-3.91,5.54-5.8,8.35
					c-1.43,2.12-2.73,4.43-3.97,6.67c-1,1.81-1.99,3.63-2.96,5.46h-0.45c0,0,1.2-3.77,1.03-5.03c-0.17-1.26-1.09-1.69-3.65-1.69
					c-2.57,0-11.08,1.35-12.64,1.71c-1.56,0.37-2.34,0.7-2.93,2c-0.58,1.29-1.67,3.65-1.51,4.86c0.17,1.21,0.89,3.34,2.04,3.68
					c0.68,0.2,4.51,0.48,7.5,0.68c-0.08,0.1-0.16,0.19-0.24,0.28c-0.99,1.16-2.01,2.34-3.2,3.31c-1.44,1.17-2.91,2.31-4.37,3.45
					c-1.81,1.4-3.64,2.85-5.49,4.2c-0.82,0.6-1.13,1.99-1.33,2.94c-0.33,1.59-0.52,3.26-0.67,4.88c-0.5,5.24-0.61,10.63-0.56,15.89
					c0.02,2.73,0.12,5.47,0.27,8.21c-0.18,1.4-0.33,2.8-0.47,4.21v0c-0.22,2.27-0.41,4.54-0.54,6.84c-0.1,1.65-0.18,3.32-0.23,4.99
					c-0.09,2.73-0.13,5.47-0.11,8.23c0.01,2.25,0.06,4.5,0.15,6.77c0.14,3.89,0.38,7.82,0.7,11.77c0.01,0.19,0.03,0.38,0.05,0.58
					c0.01,0,0.02,0.01,0.03,0.01c11.65,4.38,32.35,6.19,40.89,5.51c8.54-0.69,15.53-2.35,15.53-2.35l0.06,0
					c0.14-0.94,0.26-1.89,0.38-2.84c1.12,0.01,2.24,0.02,3.36,0.03c11,0.09,22.01,0.19,33.01,0.27c6.98,0.05,13.97,0.11,20.95,0.11
					c6.98,0,13.96-0.07,20.94-0.11c11-0.08,22.01-0.17,33.01-0.27c1.12-0.01,2.24-0.02,3.36-0.03c0.07,0.55,0.14,1.09,0.21,1.64
					c1.95,1.22,7.93,3.74,23.86,3.55c14.61-0.17,24.39-0.77,30.8-2.52h0.01c0.63-0.17,1.22-0.36,1.79-0.55
					c0.34-3.72,0.61-7.42,0.79-11.09c0.18-3.51,0.28-7,0.31-10.46C377.14,107.08,377.1,104.37,377.01,101.68z M350.2,30.14
					c0.42,0.23,1.23,0.87,2.85,1.1c1.62,0.23,13.25,0.76,13.25,0.76s-11.99,0.84-10.04,2.36c1.95,1.52,6.89,2.59,4.21,2.53
					c-2.68-0.06-7.7,0.06-8.06-0.37c-0.36-0.42-0.75-2.55-0.95-3.43c-0.2-0.87-0.81-2.05-1.26-2.44
					C349.75,30.26,349.78,29.92,350.2,30.14z M349.95,36.49c0,0,1.65,1.01,2.87,1.15c1.23,0.14,16.49,0.45,16.49,0.45h-18.73
					c-0.28-0.53-0.56-1.06-0.83-1.59L349.95,36.49z M359.6,44.02c-0.17-0.2-0.33-0.39-0.49-0.57
					C359.26,43.63,359.43,43.83,359.6,44.02z M358.37,42.61c-0.03-0.04-0.06-0.07-0.1-0.11c0,0,0,0,0,0
					C358.31,42.54,358.34,42.57,358.37,42.61z M182.65,24.88c3.07-4.55,9.04-13.32,12.72-16.75c3.68-3.43,6.97-2.92,6.97-2.92
					s-2.7,1.55-4.55,3.81c0.02-0.02,0.04-0.03,0.06-0.04c0.02-0.01,0.03-0.02,0.05-0.03c0.02-0.01,0.03-0.02,0.04-0.02
					c0.03-0.01,0.1-0.03,0.19-0.05c0.02-0.01,0.05-0.01,0.08-0.02c0.03-0.01,0.06-0.01,0.09-0.02c0.02,0,0.05-0.01,0.07-0.01
					c0.05-0.01,0.11-0.02,0.17-0.03c0.05-0.01,0.11-0.02,0.18-0.03c0.04-0.01,0.09-0.01,0.13-0.02c0.07-0.01,0.14-0.02,0.21-0.03
					c0.04-0.01,0.08-0.01,0.12-0.02c0,0,0,0,0,0c0.03,0,0.05-0.01,0.08-0.01c0.08-0.01,0.17-0.02,0.26-0.04c0,0,0,0,0,0
					c0.16-0.02,0.34-0.05,0.52-0.07c0.02,0,0.05-0.01,0.07-0.01c0.15-0.02,0.31-0.04,0.47-0.06c0,0,1.26-2.06,3.1-3.48
					c3.93-0.51,15.82-1.98,25.45-2.58c10.71-0.67,29.72-0.91,32.9-0.95c3.18,0.04,22.19,0.28,32.9,0.95
					c9.63,0.6,21.53,2.08,25.45,2.58c1.84,1.42,3.09,3.48,3.09,3.48c0.31,0.04,0.61,0.08,0.87,0.11c0.31,0.04,0.59,0.08,0.83,0.12
					c0.2,0.03,0.37,0.06,0.51,0.08c0.02,0,0.05,0.01,0.07,0.01c0.03,0.01,0.06,0.01,0.09,0.02c0.03,0,0.05,0.01,0.08,0.02
					c0.09,0.02,0.15,0.03,0.19,0.05c0.01,0,0.03,0.01,0.04,0.02c0.01,0.01,0.03,0.02,0.05,0.03c0.02,0.01,0.04,0.03,0.06,0.04
					c0,0,0,0,0.01,0c-1.85-2.26-4.56-3.81-4.56-3.81s3.29-0.51,6.97,2.92c3.68,3.43,9.65,12.2,12.72,16.75
					c1.82,2.71,4.55,7.69,6.47,11.3c0.65,1.23,1.21,2.3,1.61,3.06c0.4,0.76,0.63,1.21,0.63,1.21s5.69,0.51,6.86,0.96
					c0.02,0.01,0.04,0.02,0.06,0.03c0.01,0,0.02,0.01,0.02,0.01c0.01,0.01,0.03,0.01,0.04,0.02c0.01,0,0.02,0.01,0.03,0.01
					c0.01,0.01,0.03,0.02,0.04,0.02c0.01,0.01,0.02,0.01,0.02,0.02c0.02,0.01,0.04,0.02,0.06,0.04c0,0,0.01,0.01,0.01,0.01
					c0.02,0.01,0.04,0.03,0.06,0.04c0.01,0.01,0.01,0.01,0.02,0.02c0.02,0.01,0.04,0.03,0.05,0.04c0.01,0,0.01,0.01,0.02,0.01
					c0.02,0.02,0.04,0.03,0.07,0.05c0,0,0,0,0.01,0.01c0.03,0.02,0.06,0.05,0.09,0.07c1.7,3.22,1.54,7.33,0.95,9.59
					c-0.67,2.58-1.18,3.32-6.86,3.09c-0.56-0.02-1.26-0.04-2.05-0.07c0.04-0.27,0.1-0.55,0.17-0.87c0.74-3.36,1.21-6.69,0.87-10.14
					c-0.15-1.51-0.48-2.83-2.02-3.29c1.33,0.92,1.53,1.6,1.61,3.32c0.16,3.44-0.38,6.61-1.21,9.93c-0.09,0.37-0.17,0.71-0.22,1.03
					c-7.41-0.18-21.43-0.31-21.43-0.31s12.55,0.57,21.31,1.11c-0.1,0.84-0.08,1.58-0.04,2.58c-8.86-0.32-21.86-0.4-21.86-0.4
					s0.02,0.04,0.06,0.13c-0.9-0.05-2.42-0.31-3.32-1.38c-0.17-0.2-0.27-0.32-0.38-0.46c-1.53-1.88-4.09-5.02-8.46-6.18
					c-2.53-0.68-7.12-1.42-13.59-2.04c-5.42-0.53-12.18-0.97-20.14-1.23c-4.05-0.13-7.66-0.21-10.83-0.26
					c-3.16-0.05-5.87-0.06-8.12-0.06c-2.25,0-4.96,0.01-8.12,0.06c-3.17,0.05-6.79,0.13-10.83,0.26c-7.96,0.26-14.71,0.7-20.14,1.23
					c-6.46,0.63-11.05,1.37-13.58,2.04c-4.37,1.17-6.93,4.3-8.46,6.18c-0.11,0.14-0.21,0.26-0.38,0.46
					c-0.9,1.08-2.42,1.33-3.32,1.38c0.04-0.08,0.06-0.13,0.06-0.13s-13,0.08-21.86,0.4c0.04-1,0.05-1.74-0.04-2.58
					c8.76-0.54,21.31-1.11,21.31-1.11s-14.02,0.13-21.43,0.31c-0.06-0.31-0.13-0.65-0.22-1.03c-0.83-3.32-1.37-6.49-1.2-9.93
					c0.08-1.72,0.29-2.4,1.61-3.32c-1.54,0.46-1.87,1.78-2.02,3.29c-0.34,3.45,0.13,6.78,0.87,10.14c0.07,0.31,0.12,0.6,0.17,0.87
					c-0.79,0.02-1.49,0.04-2.05,0.07c-5.67,0.22-6.18-0.51-6.86-3.09c-0.59-2.26-0.75-6.37,0.95-9.58c0.07-0.06,0.14-0.11,0.2-0.16
					c0,0,0.01,0,0.01,0c0.06-0.04,0.11-0.08,0.17-0.11c0,0,0.01-0.01,0.01-0.01c0.01-0.01,0.03-0.02,0.04-0.02
					c0.01-0.01,0.02-0.01,0.03-0.02c0.01-0.01,0.02-0.01,0.03-0.02s0.02-0.01,0.03-0.02c0.01,0,0.02-0.01,0.03-0.01
					c0.02-0.01,0.04-0.02,0.06-0.03c1.17-0.45,6.86-0.96,6.86-0.96S179.58,29.43,182.65,24.88z M347.72,67.41
					c0,0.82-0.11,1.6-0.33,2.35l15.19-0.14c0.15,0.37,0.29,0.74,0.43,1.12l-16.03,0.15c-0.78,1.76-2.14,3.2-3.83,4.09
					c-0.94,0.03-1.88,0.07-2.82,0.1c3.74-0.52,6.61-3.75,6.61-7.66c0-2.51-1.19-4.74-3.02-6.15v0.02h-9.35
					c-1.63,1.27-2.75,3.2-2.95,5.38c-0.18-0.44-0.37-0.88-0.56-1.32c0.48-1.95,1.63-3.63,3.19-4.79h10.02
					c1.08,0.8,1.96,1.85,2.56,3.07l12.98-0.12c0.21,0.39,0.38,0.73,0.5,0.97c0.02,0.05,0.05,0.09,0.07,0.14l-13.09,0.12
					C347.57,65.57,347.72,66.47,347.72,67.41z M364.26,72.19c0.29,1.17,0.74,2.59-0.07,3.59c-2.72,3.34-26.28,3.33-31.33,3.33
					c-23.58,0.03-47.26-0.28-70.84-0.56c-23.58,0.27-47.27,0.59-70.84,0.56c-5.05-0.01-28.62,0.01-31.33-3.33
					c-0.81-1-0.36-2.42-0.07-3.59c-0.32,1.44-0.15,2.69,1.2,2.78c1.79,0.11,28.79,1.07,28.79,1.07s0.78-2.7,2.46-6.91
					c1.32-3.34,3.7-8.75,4.63-10.86c0.91-0.01,3.01-0.21,4.22-1.66c0.07-0.08,0.22-0.27,0.38-0.47c1.48-1.81,3.94-4.83,8.08-5.93
					c2.5-0.67,7.05-1.4,13.47-2.02c5.41-0.53,12.15-0.97,20.09-1.23c4.05-0.13,7.66-0.21,10.82-0.26c3.16-0.05,5.87-0.07,8.11-0.06
					c2.24,0,4.95,0.02,8.11,0.06c3.15,0.05,6.76,0.13,10.82,0.26c7.94,0.26,14.68,0.7,20.09,1.23c6.42,0.62,10.97,1.35,13.47,2.02
					c4.14,1.1,6.6,4.12,8.08,5.93c0.16,0.2,0.31,0.38,0.38,0.47c1.21,1.45,3.31,1.65,4.22,1.66c0.93,2.11,3.3,7.52,4.63,10.86
					c1.67,4.22,2.45,6.91,2.45,6.91s27-0.96,28.79-1.07C364.41,74.88,364.58,73.63,364.26,72.19z M176.33,67.41
					c0-0.93,0.15-1.83,0.42-2.68l-13.09-0.12c0.02-0.05,0.05-0.09,0.07-0.14c0.12-0.25,0.29-0.59,0.51-0.97l12.97,0.12
					c0.6-1.22,1.48-2.26,2.56-3.07h10.02c1.56,1.16,2.71,2.84,3.19,4.79c-0.19,0.44-0.37,0.88-0.56,1.32
					c-0.21-2.19-1.32-4.11-2.96-5.38h-9.35v-0.02c-1.84,1.41-3.02,3.64-3.02,6.15c0,3.91,2.88,7.14,6.61,7.66
					c-0.94-0.03-1.88-0.07-2.82-0.1c-1.69-0.88-3.05-2.33-3.83-4.09l-16.03-0.15c0.14-0.37,0.29-0.75,0.44-1.12l15.19,0.14
					C176.44,69.01,176.33,68.22,176.33,67.41z M189.94,73.14c-0.09,0.25-0.17,0.51-0.26,0.76c-0.06,0.19-0.13,0.39-0.19,0.58
					c-0.42,0.28-0.87,0.53-1.35,0.74c-0.94-0.03-1.88-0.07-2.82-0.1C187.08,75,188.69,74.28,189.94,73.14z M184.78,72.32
					c-2.7,0-4.88-2.2-4.88-4.92c0-2.71,2.19-4.92,4.88-4.92c2.7,0,4.88,2.2,4.88,4.92C189.66,70.12,187.48,72.32,184.78,72.32z
					 M338.74,75.13c-0.94,0.03-1.88,0.07-2.83,0.1c-0.47-0.21-0.92-0.45-1.35-0.74c-0.06-0.19-0.13-0.39-0.19-0.58
					c-0.08-0.26-0.17-0.51-0.26-0.76C335.35,74.28,336.96,75,338.74,75.13z M334.38,67.41c0-2.71,2.19-4.92,4.88-4.92
					c2.7,0,4.88,2.2,4.88,4.92c0,2.72-2.19,4.92-4.88,4.92C336.57,72.32,334.38,70.12,334.38,67.41z M171,31.24
					c1.62-0.22,2.43-0.87,2.85-1.1c0.42-0.22,0.45,0.11,0,0.51c-0.45,0.39-1.06,1.57-1.26,2.44c-0.2,0.87-0.59,3.01-0.95,3.43
					c-0.36,0.42-5.38,0.31-8.06,0.37c-2.68,0.06,2.26-1.01,4.21-2.53c1.95-1.52-10.04-2.36-10.04-2.36S169.39,31.47,171,31.24z
					 M154.74,38.1c0,0,15.26-0.31,16.48-0.45c1.23-0.14,2.87-1.15,2.87-1.15l0.2,0.01c-0.28,0.53-0.56,1.06-0.83,1.59H154.74z
					 M167.2,55.88c0.67-0.17,3.58-0.4,7.33-0.63c0.08,0.83,0.04,1.56-0.02,2.56c-3.4,0.13-6.05,0.3-6.89,0.52
					c-3.01,0.79-6.69,10.57-7.42,12.48c-0.14,0.36-0.26,0.72-0.35,1.08c-0.56,1.24-1.2,2.86-0.28,4.1
					c2.82,3.8,26.84,4.09,32.16,4.17c23.37,0.35,46.9,0.26,70.29,0.19c23.39,0.07,46.91,0.17,70.28-0.19
					c5.33-0.08,29.34-0.37,32.16-4.17c0.92-1.24,0.28-2.86-0.28-4.1c-0.09-0.36-0.21-0.73-0.35-1.08
					c-0.73-1.91-4.41-11.69-7.42-12.48c-0.84-0.22-3.49-0.39-6.89-0.52c-0.06-1-0.1-1.72-0.02-2.56c3.75,0.24,6.66,0.47,7.33,0.63
					c2.25,0.56,5.45,3.65,7.98,9.33c2.53,5.68,3.43,9.27,3.49,11.69c0.06,2.42-0.73,3.54-5.23,4.55c-4.5,1.01-24.73,2.87-29.73,2.75
					c-4.58-0.1-61.63,0.17-71.32,0.22c-9.69-0.05-66.75-0.32-71.33-0.22c-5,0.11-25.23-1.74-29.73-2.75
					c-4.5-1.01-5.28-2.14-5.23-4.55c0.06-2.41,0.96-6.01,3.49-11.69C161.75,59.54,164.96,56.45,167.2,55.88z M370.35,122.33
					c0,0-1.1,1.14-1.41,1.19c-0.31,0.06-4.35,0.14-4.85,0.11c-0.5-0.03-2.65-1.27-3.96-1.43c-1.31-0.17-34.39,1.18-35.62,1.18
					c-1.23,0-2.01,1.35-3.57,1.57c-1.41,0.2-49.31,0.63-58.91,0.72c-9.61-0.09-57.51-0.51-58.91-0.72
					c-1.56-0.22-2.34-1.57-3.57-1.57c-1.23,0-34.31-1.35-35.62-1.18c-1.31,0.17-3.46,1.41-3.96,1.43c-0.5,0.03-4.55-0.06-4.85-0.11
					c-0.31-0.06-1.41-1.19-1.41-1.19s-0.61-3.15-1.34-8.66c-0.7-5.32-2.6-22.46-2.83-35.07c0,0,0,0,0,0.01
					c-0.01-0.44-0.01-0.87-0.02-1.29c-0.08-9.31,0.47-16.65,1.16-20.2c4.31-2.92,9.04-6.88,7.77-0.83
					c-1.35,6.41-5.17,13.04-5.96,18.88c-0.79,5.85-0.23,7.08,6.97,8.77c7.19,1.69,30.46,2.13,30.46,2.13s0,0.45,2.47,11.24
					c1.79,7.79,4.74,16.35,6.25,20.5c-3.97-11.59-7.14-32.13-5.63-32.13c1.49,0,59.26-0.09,69.02-0.11
					c9.76,0.02,67.53,0.11,69.02,0.11c1.51,0-1.67,20.55-5.63,32.13c1.51-4.15,4.47-12.71,6.25-20.5
					c2.47-10.79,2.47-11.24,2.47-11.24s23.27-0.45,30.46-2.13c7.19-1.69,7.76-2.92,6.97-8.77c-0.79-5.84-4.61-12.48-5.96-18.88
					c-1.27-6.04,3.46-2.09,7.77,0.83c0.69,3.55,1.24,10.89,1.16,20.2c-0.11,12.7-2.12,30.85-2.85,36.36
					C370.96,119.19,370.35,122.33,370.35,122.33z"/>
				<path class="st0" d="M176.92,96.1c-4.84,0-8.76,4.3-8.76,9.61c0,5.31,3.92,9.61,8.76,9.61c4.84,0,8.76-4.3,8.76-9.61
					C185.68,100.4,181.76,96.1,176.92,96.1z M177.75,112.4c-3.51,0-6.36-2.87-6.36-6.41c0-3.54,2.85-6.41,6.36-6.41
					c3.51,0,6.36,2.87,6.36,6.41C184.11,109.53,181.27,112.4,177.75,112.4z"/>
				<path class="st0" d="M177.75,111.33c2.93,0,5.3-2.39,5.3-5.34c0-2.95-2.37-5.34-5.3-5.34c-2.93,0-5.3,2.39-5.3,5.34
					C172.45,108.94,174.83,111.33,177.75,111.33z"/>
				<path class="st0" d="M336.82,24.65c-4.14-6.95-9.34-14.62-10.56-15.63c0,0,0,0-0.01,0c-0.02-0.02-0.04-0.03-0.06-0.04
					c-0.02-0.01-0.03-0.02-0.05-0.03c-0.02-0.01-0.03-0.02-0.04-0.02c-0.03-0.01-0.1-0.03-0.19-0.05c-0.02,0-0.05-0.01-0.08-0.02
					c-0.03-0.01-0.06-0.01-0.09-0.02c-0.02,0-0.05-0.01-0.07-0.01c-0.14-0.02-0.31-0.05-0.51-0.08c-0.24-0.03-0.52-0.07-0.83-0.12
					c-0.26-0.03-0.55-0.07-0.87-0.11c-5.67-0.71-19.16-2.07-28.55-2.69c-11.25-0.75-30.83-0.63-32.9-0.62
					c-2.07-0.01-21.66-0.13-32.9,0.62c-9.39,0.62-22.88,1.98-28.55,2.69c-0.16,0.02-0.32,0.04-0.47,0.06
					c-0.02,0-0.05,0.01-0.07,0.01c-0.18,0.02-0.36,0.05-0.52,0.07c0,0,0,0,0,0c-0.09,0.01-0.18,0.02-0.26,0.04
					c-0.03,0-0.05,0.01-0.08,0.01c0,0,0,0,0,0c-0.04,0.01-0.08,0.01-0.12,0.02c-0.07,0.01-0.14,0.02-0.21,0.03
					c-0.05,0.01-0.09,0.01-0.13,0.02c-0.06,0.01-0.12,0.02-0.18,0.03c-0.06,0.01-0.11,0.02-0.17,0.03c-0.02,0-0.05,0.01-0.07,0.01
					c-0.03,0.01-0.06,0.01-0.09,0.02c-0.03,0.01-0.05,0.01-0.08,0.02c-0.09,0.02-0.15,0.03-0.19,0.05
					c-0.01,0.01-0.03,0.01-0.04,0.02c-0.01,0.01-0.03,0.02-0.05,0.03c-0.02,0.01-0.04,0.03-0.06,0.04c0,0,0,0,0,0
					c-1.21,1.01-6.42,8.68-10.56,15.63c-4.35,7.31-8.09,14.78-8.09,14.78s9.71-1.63,13.22-2.58c3.52-0.96,5.69-2.81,7.03-3.26
					c1.34-0.45,34.14-3.54,62.48-3.54h0.31c28.34,0,61.14,3.09,62.48,3.54c1.34,0.45,3.51,2.3,7.03,3.26
					c3.51,0.95,13.22,2.58,13.22,2.58S341.17,31.96,336.82,24.65z M334.46,36.73c-0.86-0.18-1.73-0.37-2.58-0.6
					c-1.48-0.4-2.83-1.01-4.16-1.75c-0.51-0.28-1.02-0.59-1.53-0.87c-0.41-0.23-0.85-0.47-1.3-0.62c-0.19-0.06-0.43-0.1-0.62-0.13
					c-0.35-0.05-0.7-0.1-1.05-0.14c-1.17-0.14-2.34-0.26-3.51-0.38c-3.92-0.39-7.86-0.72-11.8-1.01c-11.6-0.88-23.26-1.51-34.9-1.78
					c-3.62-0.08-7.23-0.14-10.85-0.14h-0.31c-3.62,0-7.23,0.05-10.85,0.14c-11.63,0.28-23.29,0.91-34.9,1.78
					c-3.93,0.3-7.87,0.62-11.79,1.01c-1.17,0.12-2.34,0.24-3.51,0.38c-0.35,0.04-0.7,0.09-1.05,0.14c-0.2,0.03-0.43,0.06-0.62,0.13
					c-0.45,0.15-0.89,0.39-1.3,0.62c-0.51,0.29-1.01,0.59-1.53,0.87c-1.34,0.74-2.68,1.35-4.16,1.75c-0.85,0.23-1.72,0.42-2.58,0.6
					c-1.1,0.23-2.2,0.45-3.3,0.66c-1.93,0.37-3.87,0.72-5.81,1.05c0.57-1.11,1.16-2.23,1.75-3.33c1.81-3.4,3.68-6.77,5.65-10.08
					c0.55-0.92,1.1-1.83,1.66-2.73c1.78-2.88,3.63-5.75,5.56-8.54c0.68-0.99,1.38-1.97,2.11-2.92c0.23-0.3,0.47-0.61,0.72-0.9
					c0.08-0.09,0.22-0.25,0.32-0.34c0.18-0.04,0.41-0.07,0.58-0.1c0.48-0.07,0.96-0.14,1.44-0.2c1.55-0.2,3.11-0.37,4.67-0.55
					c4.5-0.49,9.01-0.94,13.52-1.34c3.57-0.32,7.14-0.61,10.71-0.85c4.18-0.28,8.38-0.4,12.56-0.48c4.38-0.09,8.77-0.13,13.16-0.14
					c2.38-0.01,4.76,0,7.13,0c2.38,0,4.75-0.01,7.13,0c4.38,0.01,8.77,0.05,13.16,0.14c4.18,0.09,8.39,0.2,12.56,0.48
					c3.57,0.24,7.14,0.53,10.71,0.85c4.51,0.4,9.02,0.85,13.52,1.34c1.56,0.17,3.12,0.35,4.67,0.55c0.48,0.06,0.96,0.13,1.44,0.2
					c0.17,0.02,0.4,0.05,0.58,0.1c0.11,0.09,0.24,0.25,0.32,0.34c0.25,0.29,0.49,0.59,0.73,0.9c0.73,0.95,1.43,1.94,2.11,2.92
					c1.93,2.79,3.78,5.66,5.56,8.54c0.56,0.91,1.11,1.82,1.66,2.73c1.97,3.31,3.84,6.68,5.65,10.08c0.59,1.11,1.18,2.22,1.75,3.33
					c-1.94-0.33-3.88-0.69-5.81-1.05C336.66,37.18,335.56,36.96,334.46,36.73z"/>
				<path class="st0" d="M190.16,22.7c-0.56,0.9-1.11,1.81-1.65,2.72c-1.96,3.3-3.83,6.66-5.63,10.05c-0.35,0.66-0.7,1.32-1.05,1.98
					c1.44-0.25,2.87-0.52,4.31-0.79c1.92-0.37,3.94-0.74,5.82-1.25c1.42-0.39,2.71-0.97,4-1.68c0.91-0.5,1.98-1.22,2.95-1.55
					c0.49-0.17,1.29-0.24,1.81-0.3c1.17-0.14,2.35-0.27,3.53-0.38c3.93-0.39,7.87-0.72,11.82-1.02c11.62-0.88,23.29-1.51,34.94-1.78
					c3.62-0.08,7.25-0.13,10.87-0.13h0.31c3.62,0,7.25,0.05,10.87,0.13c11.65,0.28,23.32,0.91,34.94,1.78
					c3.94,0.3,7.88,0.62,11.81,1.02c1.18,0.12,2.35,0.24,3.53,0.38c0.52,0.06,1.32,0.14,1.81,0.3c0.97,0.33,2.04,1.05,2.95,1.55
					c1.28,0.71,2.57,1.3,4,1.68c1.89,0.51,3.9,0.88,5.82,1.25c1.43,0.27,2.87,0.54,4.3,0.79c-0.35-0.66-0.69-1.32-1.05-1.98
					c-1.8-3.39-3.67-6.75-5.63-10.05c-0.54-0.91-1.09-1.82-1.65-2.72c-1.74-2.82-3.54-5.61-5.42-8.34c-0.68-0.98-1.36-1.96-2.08-2.9
					c-0.23-0.3-0.62-0.84-0.94-1.16c-0.15-0.03-0.3-0.04-0.44-0.07c-0.49-0.07-0.98-0.14-1.47-0.2c-1.55-0.2-3.11-0.37-4.67-0.54
					c-4.44-0.49-8.9-0.92-13.35-1.32c-3.56-0.32-7.13-0.61-10.69-0.85c-4.16-0.28-8.36-0.39-12.53-0.48
					c-6.76-0.14-13.51-0.14-20.27-0.14c-6.76,0-13.51,0-20.27,0.14c-4.17,0.09-8.37,0.2-12.53,0.48c-3.57,0.24-7.13,0.53-10.7,0.85
					c-4.45,0.4-8.91,0.83-13.35,1.32c-1.56,0.17-3.11,0.35-4.67,0.54c-0.49,0.06-0.98,0.13-1.47,0.2c-0.14,0.02-0.29,0.04-0.44,0.07
					c-0.31,0.32-0.71,0.86-0.94,1.16c-0.72,0.95-1.41,1.92-2.08,2.9C193.7,17.09,191.9,19.88,190.16,22.7z"/>
				<path class="st0" d="M184.78,62.94c-2.45,0-4.44,2-4.44,4.47c0,2.47,1.99,4.47,4.44,4.47c2.45,0,4.43-2,4.43-4.47
					C189.22,64.94,187.23,62.94,184.78,62.94z M185.09,67.66c-1.78-1.79-2.6,1.48-4.36,0.66c-0.07-0.29-0.1-0.6-0.1-0.91
					c0-2.31,1.86-4.19,4.16-4.19c1.84,0,3.4,1.21,3.95,2.88C188.63,67.74,187.11,69.7,185.09,67.66z"/>
				<path class="st0" d="M213.6,38.63c1.84,0.06,13.17-0.84,25.05-1.29c9.78-0.37,20.04-0.4,23.38-0.4c3.33,0,13.6,0.03,23.37,0.4
					c11.88,0.45,23.21,1.35,25.05,1.29c1.84-0.06,2.57-3.03,1.34-3.26c-1.23-0.23-13.22-1.46-24.83-1.97
					c-15.4-0.67-34.47-0.67-49.87,0c-11.6,0.51-23.6,1.74-24.83,1.97C211.03,35.6,211.76,38.57,213.6,38.63z"/>
				<polygon class="st0" points="197.78,9.02 197.79,9.01 197.78,9.02 				"/>
				<path class="st0" d="M325.41,117.81c-0.58,1.6-0.94,2.54-0.94,2.54C324.78,119.57,325.1,118.72,325.41,117.81z"/>
				<path class="st0" d="M198.63,117.81c0.31,0.91,0.63,1.76,0.94,2.54C199.58,120.35,199.21,119.41,198.63,117.81z"/>
				<path class="st0" d="M201.32,53.71c0.73-1.12,3.99-3.88,3.99-3.88c-1.63-2.7-5.96-14.44-5.96-15.51c0,0-5.34,4.21-4.49,5.17
					C195.7,40.44,200.59,54.83,201.32,53.71z"/>
				<path class="st0" d="M204.06,59.21c2.82-3.6,4.31-4.39,8.7-5.02c6.81-0.98,14.52-1.29,21.45-1.61
					c9.16-0.41,18.64-0.78,27.81-0.8c9.17,0.02,18.65,0.38,27.81,0.8c6.93,0.31,14.64,0.63,21.45,1.61c4.39,0.63,5.88,1.42,8.7,5.02
					c3.85,4.91,6.51,11.97,8.66,17.77c0.26,0.71,0.15,0.47,0.37,0.89c-0.04-0.46-0.01-0.25-0.18-0.95
					c-1.34-5.38-4.77-13.77-8.13-18.26c-2.89-3.87-4.61-4.83-9.26-5.58c-6.83-1.1-14.59-1.54-21.55-1.95
					c-9.18-0.54-18.68-1.02-27.88-1.14c-9.2,0.12-18.71,0.6-27.88,1.14c-6.96,0.41-14.72,0.85-21.54,1.95
					c-4.65,0.75-6.36,1.71-9.26,5.58c-3.36,4.48-6.79,12.88-8.13,18.26c-0.17,0.7-0.14,0.49-0.18,0.95
					c0.22-0.42,0.11-0.18,0.37-0.89C197.55,71.18,200.22,64.13,204.06,59.21z"/>
				<path class="st0" d="M193.4,116.43c0,0-8.88-0.9-10.29-0.23c-1.41,0.68-4.22,2.19-6.58,1.63c-2.36-0.56-4.78-1.8-6.13-1.91
					s-6.57-0.73-8.49-0.28c-1.91,0.45-2.53,4.61-2.53,6.97c0,0,0.84-3.71,1.52-4.72c0.67-1.01,2.08,2.76,2.53,3.26
					c0.45,0.51,34.51,1.68,35.58,1.68c1.07,0-1.29-5.28-1.63-5.9C197.05,116.32,193.4,116.43,193.4,116.43z"/>
				<path class="st0" d="M162.48,97.66c3.37,2.47,3.15,4.5,6.63-0.23c3.49-4.72,11.02-4.16,14.95-0.45
					c3.93,3.71,12.7,17.98,12.7,17.98c-4.72-13.71-7.87-28.44-7.87-28.44c-31.59,2.14-38.22-5.06-38.22-5.06
					S159.11,95.18,162.48,97.66z"/>
				<path class="st0" d="M187.04,23.35c5.17-8.09,11.69-16.86,11.69-16.86c-8.21,5.06-23.27,33.61-23.27,33.61l2.92-0.56
					C178.39,39.54,181.87,31.45,187.04,23.35z"/>
				<path class="st0" d="M228.3,4.02c-2.47,0,14.16-1.01,34.73-1.35c20.57-0.34,57.1,2.92,57.1,2.92s-54.29-8.21-116.01-0.34
					l-2.25,2.7c0,0,25.18-3.15,41.37-3.26C243.25,4.69,230.77,4.02,228.3,4.02z"/>
				<path class="st0" d="M249.49,40.44c-3.04,1.91-23.04,5.4-13.94,5.06c9.1-0.34,36.65-0.9,55.53-0.11
					c18.88,0.79,27.2,3.6,27.2,3.6c1.91-3.93,5.51-13.88,5.51-14.78l-10.34-0.73c0.34,2.13-0.45,5.51-3.37,5.96
					c-2.92,0.45-32.04-1.69-52.49-1.69c-20.46,0-54.97,3.04-54.97,3.04s30.13-1.57,35.18-1.57S252.52,38.53,249.49,40.44z"/>
			</g>
		</g>
		<g>
			<path class="st0" d="M377.78,120.68c0,0,15.69,2.18,50.45,5c35.83,2.91,70.74,6.02,70.74,6.02s-44.07,1.91-67.03,1.27
				c-22.96-0.64-57.82-1.05-57.82-1.05l1.43-12.16L377.78,120.68z"/>
			<path class="st0" d="M145.84,117.09c0,0-15.69,2.18-50.45,5c-35.83,2.91-70.74,6.02-70.74,6.02s44.07,1.91,67.03,1.27
				c22.96-0.64,57.82-1.05,57.82-1.05l-1.43-12.16L145.84,117.09z"/>
			<path class="st0" d="M377.81,102.02c0,0,10.85,1.51,34.89,3.46c24.78,2.01,48.93,4.17,48.93,4.17s-30.48,1.32-46.36,0.88
				s-39.99-0.73-39.99-0.73l0.99-8.41L377.81,102.02z"/>
			<path class="st0" d="M377.44,89.94c0,0,9.24,1.28,29.71,2.94c21.1,1.71,41.66,3.55,41.66,3.55s-25.96,1.12-39.48,0.75
				s-34.05-0.62-34.05-0.62l0.84-7.16L377.44,89.94z"/>
			<path class="st0" d="M147.35,89.94c0,0-9.24,1.28-29.71,2.94c-21.1,1.71-41.66,3.55-41.66,3.55s25.96,1.12,39.48,0.75
				s34.05-0.62,34.05-0.62l-0.84-7.16L147.35,89.94z"/>
			<path class="st0" d="M145.97,102.02c0,0-10.85,1.51-34.89,3.46c-24.78,2.01-48.93,4.17-48.93,4.17s30.48,1.32,46.36,0.88
				s39.99-0.73,39.99-0.73l-0.99-8.41L145.97,102.02z"/>
		</g>
		<g>
			<g>
				<path d="M92.75,149.27h35.43l8.54,8.54v24.28l-8.54,8.54h-20.86v21.4H92.75V149.27z M122.15,178.31v-16.64h-14.84v16.64H122.15z
					"/>
				<path d="M146.61,149.27h37.68v12.41h-23.11v12.77h19.6v12.41h-19.6v12.77h23.29v12.41h-37.86V149.27z"/>
				<path d="M197.51,149.27h37.68v12.41h-23.11v12.77h19.6v12.41h-19.6v12.77h23.29v12.41h-37.86V149.27z"/>
				<path d="M248.41,149.27h36.51l8.54,8.63v45.59l-8.54,8.54h-36.51V149.27z M278.98,199.62v-37.86h-16.1v37.86H278.98z"/>
				<path d="M331.23,203.49v-45.68l8.54-8.54h27.96l8.63,8.63v12.77h-14.57v-8.99H345.8v38.04h16.01v-8.99h14.57v12.77l-8.54,8.54
					h-28.05L331.23,203.49z"/>
				<path d="M400.03,149.27h19.15l19.69,62.76h-15.29l-3.6-12.32h-20.77l-3.6,12.32h-15.2L400.03,149.27z M416.21,187.3l-6.56-22.03
					l-6.65,22.03H416.21z"/>
			</g>
		</g>
		<g>
			<g>
				<path d="M0,247.85v-17.83h26.02v10.92h28.75v-22.81H15.26L0,202.87v-36.62l15.26-15.26h50.12l15.26,15.42v17.67H54.78v-10.92
					H26.02v22.81h39.51l15.1,15.26v36.46l-15.26,15.42H15.26L0,247.85z"/>
			</g>
		</g>
		<g>
			<g>
				<path d="M448.21,150.99h63.13l15.42,15.26v36.62l-15.42,14.46l20.72,45.78h-29.88l-20.72-45.78h-7.39v45.78h-25.86V150.99z
					 M500.73,195.97v-22.81h-26.66v22.81H500.73z"/>
			</g>
		</g>
		<g>
			<path d="M302.89,273.68l-4.71,0.03l0.07,11.11l4.71-0.03L302.89,273.68z M302.89,273.68l-4.71,0.03l0.07,11.11l4.71-0.03
				L302.89,273.68z M302.89,273.68l-4.71,0.03l0.07,11.11l4.71-0.03L302.89,273.68z M302.89,273.68l-4.71,0.03l0.07,11.11l4.71-0.03
				L302.89,273.68z M302.89,273.68l-4.71,0.03l0.07,11.11l4.71-0.03L302.89,273.68z M302.89,273.68l-4.71,0.03l0.07,11.11l4.71-0.03
				L302.89,273.68z M389.88,281.76c-0.71-5.33,0.94-12.64,3.6-15.4c2.66-2.77,7.33-2.59,9.93-2.34c2.6,0.25,19.11,3.3,19.11,3.3
				c-5.32-13.71-16.53-18.41-26.97-20.63c-10.44-2.22-15.36,4.94-21.39,10.34c-6.03,5.39-17.63,6.84-32.16,6.06
				c-14.53-0.78-126.91-0.59-136.21-0.04c-13.31,0.79-22.87-9.62-28.21-14.09c-5.34-4.47-14.99-6.46-27.12-5.26
				c-12.13,1.21-18.77,11.02-18.77,11.02l32.68,8.69c0,0,2.09,15.21,0.14,18.64c-1.95,3.43-9.41,12.1-9.41,12.1l-32.58-5.95
				c0,0,3.86,6.6,10.09,14.4c6.23,7.81,13.29,9.63,21.16,12.51c7.87,2.88,17.9-6.38,23.83-10.48c5.93-4.09,15.93-7.55,21.86-8.28
				c5.93-0.73,150.87-5.24,157.78-5.14c6.91,0.1,9.04,1.75,14.79,8.28c5.75,6.53,18.92,7.79,28.89,6.75
				c9.98-1.04,16.19-10.76,16.19-10.76s-11.49-2.7-18.42-3.32C391.78,291.54,390.58,287.09,389.88,281.76z M184.5,289.27
				c-3.2,9.79-13.74,15.76-13.91,15.85c0.13-0.17,9.82-13.35,12.19-21.49c2.39-8.2-0.93-26.21-0.93-26.21
				C188.36,273.08,187.72,279.4,184.5,289.27z M300.25,264.09l3.87-0.02l-2.08,4.62l-3.34,0.02L300.25,264.09z M228.47,288.9
				l-3.44-7.48l-1.21,0.01l0.05,7.5l-4.24,0.03l-0.12-18.38l10.35-0.06l2.54,2.49l0.04,6l-2.51,2.38l3.44,7.48L228.47,288.9z
				 M246.56,285.15l0.02,3.63l-11.38,0.07l-0.02-2.84l6.3-11.94l-5.92,0.04l-0.02-3.63l11.35-0.07l0.02,2.87l-6.32,11.92
				L246.56,285.15z M249.9,288.76l-0.12-18.38l11.03-0.07l0.02,3.63l-6.77,0.04l0.02,3.74l5.74-0.04l0.02,3.63l-5.74,0.04l0.02,3.74
				l6.82-0.04l0.02,3.63L249.9,288.76z M275,288.61l-8.21,0.05l-2.52-2.49l-0.02-2.92l4.27-0.03l0.01,1.79l4.71-0.03l-0.02-3.74
				l-6.48,0.04l-2.52-2.49l-0.04-6l2.49-2.52l8.22-0.05l2.52,2.51l0.02,2.9l-4.24,0.03l-0.01-1.79l-4.71,0.03l0.02,3.74l6.48-0.04
				l2.49,2.49l0.04,5.98L275,288.61z M291.22,284.87l0.02,3.63l-11.38,0.07l-0.02-2.84l6.3-11.94l-5.92,0.04l-0.02-3.63l11.35-0.07
				l0.02,2.87l-6.32,11.92L291.22,284.87z M304.72,288.42l-8.19,0.05l-2.52-2.49l-0.08-13.4l2.46-2.49l8.22-0.05l2.54,2.51
				l0.08,13.32L304.72,288.42z M327.31,288.28l-4.42,0.03l-2.36-10.65l-2.3,10.68l-4.4,0.03l-4.73-18.35l4.37-0.03l2.52,11.78
				l2.3-11.81l4.34-0.03l2.5,11.68l2.3-11.71l4.4-0.03L327.31,288.28z M372.32,278.32c0.3,12.16,1.49,16.39,1.49,16.39
				s-4.64-4.63-4.47-15.57c0.19-11.52,6.83-19.99,14.44-24.53C383.6,254.79,372.02,266.26,372.32,278.32z M298.18,273.71l0.07,11.11
				l4.71-0.03l-0.07-11.11L298.18,273.71z M223.77,274.18l0.02,3.74l4.37-0.03l-0.02-3.74L223.77,274.18z M302.89,273.68l-4.71,0.03
				l0.07,11.11l4.71-0.03L302.89,273.68z M302.89,273.68l-4.71,0.03l0.07,11.11l4.71-0.03L302.89,273.68z M302.89,273.68l-4.71,0.03
				l0.07,11.11l4.71-0.03L302.89,273.68z M302.89,273.68l-4.71,0.03l0.07,11.11l4.71-0.03L302.89,273.68z M302.89,273.68l-4.71,0.03
				l0.07,11.11l4.71-0.03L302.89,273.68z M302.89,273.68l-4.71,0.03l0.07,11.11l4.71-0.03L302.89,273.68z"/>
		</g>
	</g>
</g>
<g id="Warstwa_2">
	<g>
		<path class="st1" d="M-1529.18,9630.86c-122.46-6.33-268.55-10.01-425.42-10.01c-156.88,0-302.97,3.68-425.44,10.01
			c12.16-13.34,20.14-33.81,23.38-56.23c0.14-0.95,0.27-1.9,0.4-2.85l796.38-12.76c0,0,1.49,1.76,5.75,4.41
			c0.51,3.74,1.03,7.47,1.57,11.2C-1549.32,9597.05-1541.34,9617.52-1529.18,9630.86z"/>
	</g>
</g>
</svg>
